<svg xmlns="http://www.w3.org/2000/svg" xmlns:xlink="http://www.w3.org/1999/xlink" width="500" zoomAndPan="magnify" viewBox="0 0 375 149.999998" height="200" preserveAspectRatio="xMidYMid meet" version="1.0"><defs><g/><clipPath id="8e39ff84bb"><path d="M 7.066406 3 L 367 3 L 367 144 L 7.066406 144 Z M 7.066406 3 " clip-rule="nonzero"/></clipPath></defs><g clip-path="url(#8e39ff84bb)"><path fill="#fbe8d7" d="M 363.414062 85.628906 C 362.433594 87.863281 361.375 90.019531 360.550781 92.292969 C 354.621094 108.171875 344.058594 118.675781 330.90625 126.046875 C 327.570312 127.929688 324.152344 129.734375 320.660156 130.949219 C 291.25 141.179688 261.726562 146.867188 231.964844 141.613281 C 213.394531 138.320312 194.941406 134.203125 176.132812 132.59375 C 157.914062 131.027344 139.304688 131.929688 120.851562 132.164062 C 101.140625 132.4375 81.394531 133.417969 62.507812 127.695312 C 45.074219 122.402344 26.820312 119.265625 15.511719 103.191406 C 11.113281 96.957031 7.34375 84.570312 7.304688 76.648438 C 7.265625 68.101562 11.898438 54.105469 17.867188 39.25 C 24.621094 27.644531 29.761719 23.527344 39.1875 18.703125 C 69.574219 3.140625 101.0625 2.945312 133.140625 3.964844 C 154.578125 4.628906 176.25 2.867188 197.726562 3.453125 C 218.535156 4.003906 239.148438 6.316406 259.917969 7.53125 C 265.023438 7.84375 270.246094 6.824219 275.429688 6.707031 C 287.207031 6.472656 299.261719 4.867188 310.6875 6.628906 C 324.230469 8.707031 336.992188 14.589844 347.984375 23.488281 C 362.082031 34.855469 367.617188 51.597656 366.164062 72.0625 C 366.085938 73.277344 366.085938 74.492188 366.046875 75.707031 C 365.144531 79.042969 364.277344 82.335938 363.414062 85.628906 Z M 363.414062 85.628906 " fill-opacity="1" fill-rule="nonzero"/></g><g fill="#000000" fill-opacity="1"><g transform="translate(16.916892, 100.528052)"><g><path d="M 51.390625 -53.015625 C 51.265625 -52.648438 51.144531 -52.347656 51.03125 -52.109375 C 50.96875 -51.328125 50.816406 -50.546875 50.578125 -49.765625 C 50.335938 -48.984375 49.859375 -48.351562 49.140625 -47.875 C 48.835938 -47.632812 48.390625 -47.457031 47.796875 -47.34375 C 47.554688 -47.101562 47.34375 -46.984375 47.15625 -46.984375 C 44.875 -46.554688 42.59375 -46.132812 40.3125 -45.71875 C 38.039062 -45.300781 35.765625 -44.941406 33.484375 -44.640625 C 33.484375 -42.660156 33.46875 -40.679688 33.4375 -38.703125 C 33.40625 -36.722656 33.390625 -34.742188 33.390625 -32.765625 C 33.390625 -30.003906 33.40625 -27.257812 33.4375 -24.53125 C 33.46875 -21.800781 33.484375 -19.054688 33.484375 -16.296875 C 33.535156 -14.734375 33.59375 -13.15625 33.65625 -11.5625 C 33.71875 -9.976562 33.78125 -8.40625 33.84375 -6.84375 C 33.78125 -5.757812 33.613281 -4.722656 33.34375 -3.734375 C 33.070312 -2.742188 32.519531 -1.921875 31.6875 -1.265625 L 31.6875 -1.4375 C 31.738281 -2.101562 31.765625 -2.75 31.765625 -3.375 C 31.765625 -4 31.796875 -4.613281 31.859375 -5.21875 L 31.859375 -8.640625 C 31.679688 -7.859375 31.53125 -6.894531 31.40625 -5.75 C 31.289062 -4.613281 31.082031 -3.597656 30.78125 -2.703125 C 30.476562 -1.742188 29.847656 -1.019531 28.890625 -0.53125 C 27.929688 -0.0507812 26.972656 0.0625 26.015625 -0.1875 C 24.148438 -0.78125 22.914062 -1.960938 22.3125 -3.734375 C 21.71875 -5.503906 21.359375 -7.257812 21.234375 -9 C 21.117188 -11.28125 21.078125 -13.585938 21.109375 -15.921875 C 21.140625 -18.265625 21.179688 -20.578125 21.234375 -22.859375 C 21.359375 -25.140625 21.492188 -27.445312 21.640625 -29.78125 C 21.796875 -32.125 21.898438 -34.46875 21.953125 -36.8125 L 22.140625 -40.765625 L 22.140625 -43.65625 C 21.535156 -43.65625 20.945312 -43.65625 20.375 -43.65625 C 19.8125 -43.65625 19.226562 -43.65625 18.625 -43.65625 C 16.164062 -43.65625 13.769531 -43.742188 11.4375 -43.921875 C 10.46875 -44.035156 9.519531 -44.195312 8.59375 -44.40625 C 7.664062 -44.625 6.78125 -44.972656 5.9375 -45.453125 C 5.34375 -45.867188 4.789062 -46.375 4.28125 -46.96875 C 3.769531 -47.570312 3.363281 -48.234375 3.0625 -48.953125 C 2.15625 -49.441406 1.476562 -50.179688 1.03125 -51.171875 C 0.582031 -52.160156 0.476562 -53.191406 0.71875 -54.265625 C 1.019531 -55.171875 1.570312 -55.984375 2.375 -56.703125 C 3.1875 -57.421875 4.078125 -57.71875 5.046875 -57.59375 C 7.503906 -57.351562 9.960938 -57.160156 12.421875 -57.015625 C 14.878906 -56.867188 17.335938 -56.796875 19.796875 -56.796875 C 19.796875 -56.847656 19.8125 -56.890625 19.84375 -56.921875 C 19.875 -56.953125 19.890625 -57 19.890625 -57.0625 C 15.023438 -57.363281 10.164062 -57.90625 5.3125 -58.6875 C 5.1875 -58.6875 5.140625 -58.773438 5.171875 -58.953125 C 5.203125 -59.128906 5.28125 -59.1875 5.40625 -59.125 C 11.695312 -58.769531 17.992188 -58.648438 24.296875 -58.765625 C 30.597656 -58.890625 36.867188 -59.222656 43.109375 -59.765625 C 43.585938 -59.878906 44.066406 -59.953125 44.546875 -59.984375 C 45.023438 -60.015625 45.476562 -60.0625 45.90625 -60.125 C 46.144531 -60.125 46.394531 -60.132812 46.65625 -60.15625 C 46.925781 -60.1875 47.1875 -60.175781 47.4375 -60.125 C 48.09375 -60.238281 48.765625 -60.328125 49.453125 -60.390625 C 50.140625 -60.453125 50.816406 -60.507812 51.484375 -60.5625 C 51.898438 -60.625 52.148438 -60.398438 52.234375 -59.890625 C 52.328125 -59.378906 52.132812 -59.066406 51.65625 -58.953125 C 51.351562 -58.953125 51.144531 -58.921875 51.03125 -58.859375 C 51.269531 -58.742188 51.445312 -58.625 51.5625 -58.5 C 52.582031 -57.894531 53.078125 -56.945312 53.046875 -55.65625 C 53.023438 -54.375 52.472656 -53.492188 51.390625 -53.015625 Z M 11.4375 -46.078125 C 12.988281 -45.960938 14.578125 -45.960938 16.203125 -46.078125 C 14.398438 -46.253906 12.597656 -46.507812 10.796875 -46.84375 C 8.992188 -47.175781 7.222656 -47.613281 5.484375 -48.15625 C 6.203125 -47.488281 7.101562 -46.988281 8.1875 -46.65625 C 9.269531 -46.332031 10.351562 -46.140625 11.4375 -46.078125 Z M 11.4375 -46.078125 "/></g></g></g><g fill="#000000" fill-opacity="1"><g transform="translate(60.920437, 100.528052)"><g><path d="M 2.0625 -47.515625 C 5.0625 -49.078125 8.179688 -50.394531 11.421875 -51.46875 C 14.671875 -52.550781 17.914062 -53.515625 21.15625 -54.359375 L 23.21875 -54.90625 C 25.082031 -55.257812 26.941406 -55.601562 28.796875 -55.9375 C 30.660156 -56.269531 32.550781 -56.492188 34.46875 -56.609375 C 34.882812 -56.671875 35.285156 -56.703125 35.671875 -56.703125 C 36.066406 -56.703125 36.476562 -56.703125 36.90625 -56.703125 C 35.164062 -56.273438 33.394531 -55.835938 31.59375 -55.390625 C 29.789062 -54.941406 28.019531 -54.507812 26.28125 -54.09375 C 23.21875 -53.425781 20.171875 -52.71875 17.140625 -51.96875 C 14.109375 -51.21875 11.09375 -50.332031 8.09375 -49.3125 C 7.070312 -49.019531 6.066406 -48.675781 5.078125 -48.28125 C 4.085938 -47.894531 3.082031 -47.460938 2.0625 -46.984375 C 1.820312 -47.097656 1.820312 -47.273438 2.0625 -47.515625 Z M 52.5625 -10.890625 C 52.4375 -10.347656 52.132812 -10.046875 51.65625 -9.984375 C 48.351562 -9.390625 45.035156 -8.65625 41.703125 -7.78125 C 38.378906 -6.914062 35.128906 -5.910156 31.953125 -4.765625 C 30.453125 -4.222656 28.9375 -3.679688 27.40625 -3.140625 C 25.875 -2.609375 24.359375 -2.007812 22.859375 -1.34375 L 22.765625 -1.34375 C 22.710938 -1.289062 22.625 -1.25 22.5 -1.21875 C 22.375 -1.1875 22.253906 -1.140625 22.140625 -1.078125 C 21.660156 -0.835938 21.164062 -0.628906 20.65625 -0.453125 C 20.144531 -0.273438 19.648438 -0.0625 19.171875 0.1875 L 19.078125 0.265625 C 18.722656 0.503906 18.046875 0.800781 17.046875 1.15625 C 16.054688 1.519531 15.125 1.820312 14.25 2.0625 C 13.382812 2.3125 12.953125 2.4375 12.953125 2.4375 C 12.953125 2.4375 12.847656 2.445312 12.640625 2.46875 C 12.429688 2.5 12.238281 2.515625 12.0625 2.515625 C 11.34375 2.640625 10.617188 2.640625 9.890625 2.515625 C 9.171875 2.398438 8.632812 1.953125 8.28125 1.171875 C 8.101562 0.804688 8.070312 0.382812 8.1875 -0.09375 C 7.050781 -0.570312 6.164062 -1.394531 5.53125 -2.5625 C 4.90625 -3.726562 4.800781 -4.882812 5.21875 -6.03125 C 4.976562 -7.59375 4.78125 -9.164062 4.625 -10.75 C 4.476562 -12.34375 4.347656 -13.921875 4.234375 -15.484375 L 3.15625 -26.28125 L 2.0625 -36.546875 C 0.925781 -37.804688 0.445312 -39.273438 0.625 -40.953125 C 0.8125 -42.628906 1.5625 -44.039062 2.875 -45.1875 C 2.9375 -45.300781 3 -45.414062 3.0625 -45.53125 C 3.125 -45.65625 3.179688 -45.78125 3.234375 -45.90625 C 4.203125 -46.320312 5.164062 -46.707031 6.125 -47.0625 C 7.082031 -47.425781 8.039062 -47.757812 9 -48.0625 C 12 -49.082031 15.015625 -49.96875 18.046875 -50.71875 C 21.078125 -51.46875 24.125 -52.140625 27.1875 -52.734375 C 29.582031 -53.273438 31.945312 -53.859375 34.28125 -54.484375 C 36.625 -55.117188 38.96875 -55.738281 41.3125 -56.34375 C 41.613281 -56.28125 41.925781 -56.234375 42.25 -56.203125 C 42.582031 -56.171875 42.867188 -56.097656 43.109375 -55.984375 L 44.546875 -55.4375 C 44.785156 -55.257812 45.023438 -55.066406 45.265625 -54.859375 C 45.503906 -54.648438 45.742188 -54.453125 45.984375 -54.265625 C 46.285156 -53.304688 46.492188 -52.363281 46.609375 -51.4375 C 46.734375 -50.507812 46.707031 -49.59375 46.53125 -48.6875 L 42.03125 -47.34375 C 41.070312 -47.039062 40.066406 -46.738281 39.015625 -46.4375 C 37.960938 -46.132812 36.925781 -45.835938 35.90625 -45.546875 C 35.664062 -45.421875 35.488281 -45.359375 35.375 -45.359375 C 34.226562 -45.054688 32.890625 -44.679688 31.359375 -44.234375 C 29.828125 -43.785156 28.296875 -43.332031 26.765625 -42.875 C 25.242188 -42.425781 23.941406 -42.019531 22.859375 -41.65625 C 21.773438 -41.300781 21.113281 -41.066406 20.875 -40.953125 C 19.4375 -40.472656 18 -39.960938 16.5625 -39.421875 C 15.125 -38.878906 13.710938 -38.304688 12.328125 -37.703125 L 12.15625 -37.53125 C 12.207031 -37.226562 12.28125 -36.734375 12.375 -36.046875 C 12.46875 -35.359375 12.554688 -34.710938 12.640625 -34.109375 C 12.734375 -33.503906 12.78125 -33.113281 12.78125 -32.9375 C 15.300781 -34.019531 17.804688 -35.082031 20.296875 -36.125 C 22.785156 -37.175781 25.320312 -38.1875 27.90625 -39.15625 C 29.34375 -39.507812 30.796875 -39.878906 32.265625 -40.265625 C 33.734375 -40.660156 35.1875 -41.066406 36.625 -41.484375 L 37.796875 -41.765625 C 38.335938 -41.878906 38.863281 -41.953125 39.375 -41.984375 C 39.882812 -42.015625 40.410156 -42.0625 40.953125 -42.125 C 42.085938 -42.175781 43.164062 -42.097656 44.1875 -41.890625 C 45.207031 -41.679688 46.019531 -41.035156 46.625 -39.953125 C 46.738281 -39.835938 46.8125 -39.71875 46.84375 -39.59375 C 46.875 -39.476562 46.921875 -39.359375 46.984375 -39.234375 C 47.097656 -39.054688 47.1875 -38.878906 47.25 -38.703125 C 47.3125 -38.523438 47.375 -38.34375 47.4375 -38.15625 C 47.488281 -38.09375 47.546875 -38.0625 47.609375 -38.0625 C 48.453125 -37.644531 48.960938 -36.894531 49.140625 -35.8125 C 49.316406 -34.976562 49.179688 -34.125 48.734375 -33.25 C 48.285156 -32.382812 47.640625 -31.738281 46.796875 -31.3125 C 45.835938 -30.894531 44.863281 -30.640625 43.875 -30.546875 C 42.882812 -30.460938 41.878906 -30.300781 40.859375 -30.0625 C 39.773438 -29.882812 38.675781 -29.6875 37.5625 -29.46875 C 36.457031 -29.257812 35.367188 -29.003906 34.296875 -28.703125 C 32.128906 -28.109375 29.976562 -27.460938 27.84375 -26.765625 C 25.71875 -26.078125 23.609375 -25.285156 21.515625 -24.390625 C 20.191406 -23.847656 18.914062 -23.273438 17.6875 -22.671875 C 16.457031 -22.078125 15.210938 -21.453125 13.953125 -20.796875 L 14.484375 -14.9375 C 14.484375 -14.875 14.484375 -14.828125 14.484375 -14.796875 C 14.484375 -14.773438 14.484375 -14.703125 14.484375 -14.578125 L 14.765625 -14.765625 C 15.785156 -15.242188 16.789062 -15.675781 17.78125 -16.0625 C 18.769531 -16.457031 19.742188 -16.863281 20.703125 -17.28125 L 28.34375 -20.25 C 29.007812 -20.550781 29.6875 -20.820312 30.375 -21.0625 C 31.0625 -21.300781 31.738281 -21.539062 32.40625 -21.78125 C 33.476562 -22.195312 34.554688 -22.597656 35.640625 -22.984375 C 36.722656 -23.378906 37.800781 -23.757812 38.875 -24.125 L 42.390625 -25.203125 C 42.867188 -25.316406 43.347656 -25.476562 43.828125 -25.6875 C 44.304688 -25.90625 44.785156 -26.070312 45.265625 -26.1875 C 47.003906 -26.550781 48.425781 -26.398438 49.53125 -25.734375 C 50.644531 -25.078125 51.53125 -24.117188 52.1875 -22.859375 C 52.851562 -21.597656 53.351562 -20.21875 53.6875 -18.71875 C 54.019531 -17.21875 54.210938 -15.835938 54.265625 -14.578125 C 54.328125 -13.796875 54.191406 -13.085938 53.859375 -12.453125 C 53.535156 -11.828125 53.101562 -11.304688 52.5625 -10.890625 Z M 30.78125 -29.96875 C 29.394531 -29.550781 28 -29.128906 26.59375 -28.703125 C 25.1875 -28.285156 23.789062 -27.835938 22.40625 -27.359375 C 21.507812 -27.117188 20.625 -26.863281 19.75 -26.59375 C 18.882812 -26.320312 18.03125 -26.066406 17.1875 -25.828125 C 17.007812 -24.804688 16.53125 -23.96875 15.75 -23.3125 C 17.96875 -24.445312 20.234375 -25.460938 22.546875 -26.359375 C 24.859375 -27.265625 27.125 -28.164062 29.34375 -29.0625 C 29.820312 -29.3125 30.332031 -29.523438 30.875 -29.703125 Z M 10.890625 1.171875 C 11.546875 1.234375 12.296875 1.25 13.140625 1.21875 C 13.984375 1.1875 14.460938 1.140625 14.578125 1.078125 C 14.703125 1.078125 14.789062 1.046875 14.84375 0.984375 C 15.207031 0.804688 15.566406 0.628906 15.921875 0.453125 C 16.285156 0.273438 16.617188 0.09375 16.921875 -0.09375 C 17.640625 -0.445312 18.34375 -0.800781 19.03125 -1.15625 C 19.71875 -1.519531 20.394531 -1.882812 21.0625 -2.25 L 21.0625 -2.4375 C 20.28125 -2.132812 19.46875 -1.832031 18.625 -1.53125 C 17.789062 -1.226562 16.953125 -0.925781 16.109375 -0.625 C 15.265625 -0.332031 14.40625 -0.0195312 13.53125 0.3125 C 12.664062 0.644531 11.785156 0.929688 10.890625 1.171875 Z M 10.890625 1.171875 "/></g></g></g><g fill="#000000" fill-opacity="1"><g transform="translate(106.72375, 100.528052)"><g><path d="M 50.3125 -0.984375 C 49.46875 -0.742188 48.789062 -0.742188 48.28125 -0.984375 C 47.769531 -1.222656 47.273438 -1.675781 46.796875 -2.34375 C 46.796875 -2.34375 46.316406 -3.132812 45.359375 -4.71875 C 44.398438 -6.3125 43.003906 -8.457031 41.171875 -11.15625 C 39.347656 -13.851562 37.144531 -16.796875 34.5625 -19.984375 C 34.4375 -20.160156 34 -20.65625 33.25 -21.46875 C 32.5 -22.28125 31.78125 -23.046875 31.09375 -23.765625 C 30.40625 -24.484375 30.0625 -24.84375 30.0625 -24.84375 L 29.609375 -24.203125 C 30.023438 -23.785156 30.410156 -23.351562 30.765625 -22.90625 C 31.128906 -22.457031 31.523438 -21.992188 31.953125 -21.515625 C 34.410156 -18.566406 36.804688 -15.546875 39.140625 -12.453125 C 41.484375 -9.367188 43.585938 -6.148438 45.453125 -2.796875 C 45.753906 -2.253906 45.660156 -1.832031 45.171875 -1.53125 C 44.691406 -1.226562 44.273438 -1.285156 43.921875 -1.703125 C 42.359375 -3.691406 40.828125 -5.703125 39.328125 -7.734375 C 37.828125 -9.773438 36.328125 -11.816406 34.828125 -13.859375 C 34.046875 -14.753906 33.265625 -15.648438 32.484375 -16.546875 C 31.703125 -17.453125 30.925781 -18.359375 30.15625 -19.265625 C 29.726562 -19.679688 29.316406 -20.097656 28.921875 -20.515625 C 28.535156 -20.941406 28.164062 -21.363281 27.8125 -21.78125 C 25.53125 -18.65625 23.304688 -15.503906 21.140625 -12.328125 C 18.984375 -9.148438 16.859375 -5.941406 14.765625 -2.703125 C 14.523438 -2.273438 14.160156 -2.078125 13.671875 -2.109375 C 13.191406 -2.140625 12.832031 -2.335938 12.59375 -2.703125 C 12.351562 -2.523438 12.085938 -2.523438 11.796875 -2.703125 C 11.609375 -2.460938 11.425781 -2.222656 11.25 -1.984375 C 11.070312 -1.742188 10.890625 -1.503906 10.703125 -1.265625 C 10.222656 -0.597656 9.59375 -0.0234375 8.8125 0.453125 C 8.039062 0.929688 7.203125 1.050781 6.296875 0.8125 C 4.554688 0.269531 3.582031 -0.734375 3.375 -2.203125 C 3.164062 -3.671875 3.390625 -5.125 4.046875 -6.5625 C 4.585938 -7.769531 5.15625 -8.988281 5.75 -10.21875 C 6.351562 -11.445312 6.957031 -12.628906 7.5625 -13.765625 C 8.882812 -16.828125 10.351562 -19.8125 11.96875 -22.71875 C 13.59375 -25.632812 15.300781 -28.472656 17.09375 -31.234375 C 17.28125 -31.472656 17.445312 -31.710938 17.59375 -31.953125 C 17.738281 -32.191406 17.90625 -32.429688 18.09375 -32.671875 C 18.269531 -32.910156 17.90625 -33.476562 17 -34.375 C 16.101562 -35.28125 15.007812 -36.285156 13.71875 -37.390625 C 12.4375 -38.503906 11.253906 -39.492188 10.171875 -40.359375 C 9.085938 -41.234375 8.457031 -41.757812 8.28125 -41.9375 C 7.382812 -42.71875 6.410156 -43.515625 5.359375 -44.328125 C 4.304688 -45.140625 3.453125 -46.023438 2.796875 -46.984375 C 2.734375 -47.097656 2.742188 -47.203125 2.828125 -47.296875 C 2.921875 -47.390625 3.03125 -47.40625 3.15625 -47.34375 C 4.050781 -47.101562 4.945312 -46.695312 5.84375 -46.125 C 6.75 -45.550781 7.59375 -44.9375 8.375 -44.28125 L 9.71875 -43.375 C 9.65625 -43.5 9.5625 -43.601562 9.4375 -43.6875 C 9.320312 -43.78125 9.207031 -43.890625 9.09375 -44.015625 C 8.488281 -44.546875 7.882812 -45.082031 7.28125 -45.625 C 6.6875 -46.164062 6.085938 -46.707031 5.484375 -47.25 L 4.140625 -48.59375 C 3.660156 -48.351562 3.148438 -48.382812 2.609375 -48.6875 C 2.429688 -48.8125 2.160156 -49.050781 1.796875 -49.40625 C 1.554688 -49.832031 1.4375 -50.375 1.4375 -51.03125 C 1.738281 -52.769531 2.640625 -54.085938 4.140625 -54.984375 C 5.640625 -55.890625 7.195312 -56.101562 8.8125 -55.625 C 10.5 -55.195312 11.984375 -54.472656 13.265625 -53.453125 C 14.554688 -52.441406 15.832031 -51.394531 17.09375 -50.3125 C 18.476562 -48.988281 19.859375 -47.679688 21.234375 -46.390625 C 22.617188 -45.097656 23.972656 -43.765625 25.296875 -42.390625 L 25.5625 -42.75 C 25.625 -42.8125 25.65625 -42.84375 25.65625 -42.84375 C 25.65625 -42.84375 25.679688 -42.875 25.734375 -42.9375 C 25.796875 -43.113281 25.859375 -43.289062 25.921875 -43.46875 C 25.984375 -43.644531 26.070312 -43.796875 26.1875 -43.921875 C 27.207031 -45.242188 28.226562 -46.535156 29.25 -47.796875 C 30.269531 -49.054688 31.347656 -50.253906 32.484375 -51.390625 C 33.566406 -52.523438 34.707031 -53.632812 35.90625 -54.71875 C 37.101562 -55.800781 38.363281 -56.703125 39.6875 -57.421875 C 40.59375 -57.898438 41.550781 -58.210938 42.5625 -58.359375 C 43.582031 -58.515625 44.523438 -58.394531 45.390625 -58 C 46.265625 -57.613281 46.851562 -56.820312 47.15625 -55.625 C 47.28125 -55.144531 47.3125 -54.8125 47.25 -54.625 C 47.375 -54.570312 47.476562 -54.484375 47.5625 -54.359375 C 47.65625 -54.242188 47.734375 -54.125 47.796875 -54 C 48.148438 -53.34375 48.367188 -52.640625 48.453125 -51.890625 C 48.546875 -51.140625 48.414062 -50.429688 48.0625 -49.765625 C 47.820312 -49.171875 47.445312 -48.601562 46.9375 -48.0625 C 46.425781 -47.519531 45.929688 -47.007812 45.453125 -46.53125 C 44.910156 -45.925781 44.351562 -45.304688 43.78125 -44.671875 C 43.21875 -44.046875 42.691406 -43.40625 42.203125 -42.75 C 41.128906 -41.488281 40.066406 -40.210938 39.015625 -38.921875 C 37.960938 -37.628906 36.925781 -36.328125 35.90625 -35.015625 C 35.601562 -34.648438 35.300781 -34.269531 35 -33.875 C 34.707031 -33.488281 34.410156 -33.085938 34.109375 -32.671875 L 34.375 -32.40625 C 36.957031 -35.40625 39.613281 -38.375 42.34375 -41.3125 C 45.070312 -44.25 47.847656 -47.097656 50.671875 -49.859375 C 50.785156 -49.984375 50.890625 -50 50.984375 -49.90625 C 51.078125 -49.8125 51.0625 -49.707031 50.9375 -49.59375 C 48.175781 -46.65625 45.488281 -43.671875 42.875 -40.640625 C 40.269531 -37.609375 37.707031 -34.53125 35.1875 -31.40625 C 36.382812 -29.90625 37.582031 -28.40625 38.78125 -26.90625 C 39.988281 -25.40625 41.160156 -23.875 42.296875 -22.3125 C 43.203125 -21.0625 44.101562 -19.789062 45 -18.5 C 45.894531 -17.207031 46.734375 -15.929688 47.515625 -14.671875 C 48.359375 -13.347656 49.210938 -12.023438 50.078125 -10.703125 C 50.953125 -9.390625 51.71875 -8.039062 52.375 -6.65625 C 52.851562 -5.582031 52.941406 -4.488281 52.640625 -3.375 C 52.347656 -2.257812 51.570312 -1.460938 50.3125 -0.984375 Z M 50.3125 -0.984375 "/></g></g></g><g fill="#000000" fill-opacity="1"><g transform="translate(148.927527, 100.528052)"><g><path d="M 51.390625 -53.015625 C 51.265625 -52.648438 51.144531 -52.347656 51.03125 -52.109375 C 50.96875 -51.328125 50.816406 -50.546875 50.578125 -49.765625 C 50.335938 -48.984375 49.859375 -48.351562 49.140625 -47.875 C 48.835938 -47.632812 48.390625 -47.457031 47.796875 -47.34375 C 47.554688 -47.101562 47.34375 -46.984375 47.15625 -46.984375 C 44.875 -46.554688 42.59375 -46.132812 40.3125 -45.71875 C 38.039062 -45.300781 35.765625 -44.941406 33.484375 -44.640625 C 33.484375 -42.660156 33.46875 -40.679688 33.4375 -38.703125 C 33.40625 -36.722656 33.390625 -34.742188 33.390625 -32.765625 C 33.390625 -30.003906 33.40625 -27.257812 33.4375 -24.53125 C 33.46875 -21.800781 33.484375 -19.054688 33.484375 -16.296875 C 33.535156 -14.734375 33.59375 -13.15625 33.65625 -11.5625 C 33.71875 -9.976562 33.78125 -8.40625 33.84375 -6.84375 C 33.78125 -5.757812 33.613281 -4.722656 33.34375 -3.734375 C 33.070312 -2.742188 32.519531 -1.921875 31.6875 -1.265625 L 31.6875 -1.4375 C 31.738281 -2.101562 31.765625 -2.75 31.765625 -3.375 C 31.765625 -4 31.796875 -4.613281 31.859375 -5.21875 L 31.859375 -8.640625 C 31.679688 -7.859375 31.53125 -6.894531 31.40625 -5.75 C 31.289062 -4.613281 31.082031 -3.597656 30.78125 -2.703125 C 30.476562 -1.742188 29.847656 -1.019531 28.890625 -0.53125 C 27.929688 -0.0507812 26.972656 0.0625 26.015625 -0.1875 C 24.148438 -0.78125 22.914062 -1.960938 22.3125 -3.734375 C 21.71875 -5.503906 21.359375 -7.257812 21.234375 -9 C 21.117188 -11.28125 21.078125 -13.585938 21.109375 -15.921875 C 21.140625 -18.265625 21.179688 -20.578125 21.234375 -22.859375 C 21.359375 -25.140625 21.492188 -27.445312 21.640625 -29.78125 C 21.796875 -32.125 21.898438 -34.46875 21.953125 -36.8125 L 22.140625 -40.765625 L 22.140625 -43.65625 C 21.535156 -43.65625 20.945312 -43.65625 20.375 -43.65625 C 19.8125 -43.65625 19.226562 -43.65625 18.625 -43.65625 C 16.164062 -43.65625 13.769531 -43.742188 11.4375 -43.921875 C 10.46875 -44.035156 9.519531 -44.195312 8.59375 -44.40625 C 7.664062 -44.625 6.78125 -44.972656 5.9375 -45.453125 C 5.34375 -45.867188 4.789062 -46.375 4.28125 -46.96875 C 3.769531 -47.570312 3.363281 -48.234375 3.0625 -48.953125 C 2.15625 -49.441406 1.476562 -50.179688 1.03125 -51.171875 C 0.582031 -52.160156 0.476562 -53.191406 0.71875 -54.265625 C 1.019531 -55.171875 1.570312 -55.984375 2.375 -56.703125 C 3.1875 -57.421875 4.078125 -57.71875 5.046875 -57.59375 C 7.503906 -57.351562 9.960938 -57.160156 12.421875 -57.015625 C 14.878906 -56.867188 17.335938 -56.796875 19.796875 -56.796875 C 19.796875 -56.847656 19.8125 -56.890625 19.84375 -56.921875 C 19.875 -56.953125 19.890625 -57 19.890625 -57.0625 C 15.023438 -57.363281 10.164062 -57.90625 5.3125 -58.6875 C 5.1875 -58.6875 5.140625 -58.773438 5.171875 -58.953125 C 5.203125 -59.128906 5.28125 -59.1875 5.40625 -59.125 C 11.695312 -58.769531 17.992188 -58.648438 24.296875 -58.765625 C 30.597656 -58.890625 36.867188 -59.222656 43.109375 -59.765625 C 43.585938 -59.878906 44.066406 -59.953125 44.546875 -59.984375 C 45.023438 -60.015625 45.476562 -60.0625 45.90625 -60.125 C 46.144531 -60.125 46.394531 -60.132812 46.65625 -60.15625 C 46.925781 -60.1875 47.1875 -60.175781 47.4375 -60.125 C 48.09375 -60.238281 48.765625 -60.328125 49.453125 -60.390625 C 50.140625 -60.453125 50.816406 -60.507812 51.484375 -60.5625 C 51.898438 -60.625 52.148438 -60.398438 52.234375 -59.890625 C 52.328125 -59.378906 52.132812 -59.066406 51.65625 -58.953125 C 51.351562 -58.953125 51.144531 -58.921875 51.03125 -58.859375 C 51.269531 -58.742188 51.445312 -58.625 51.5625 -58.5 C 52.582031 -57.894531 53.078125 -56.945312 53.046875 -55.65625 C 53.023438 -54.375 52.472656 -53.492188 51.390625 -53.015625 Z M 11.4375 -46.078125 C 12.988281 -45.960938 14.578125 -45.960938 16.203125 -46.078125 C 14.398438 -46.253906 12.597656 -46.507812 10.796875 -46.84375 C 8.992188 -47.175781 7.222656 -47.613281 5.484375 -48.15625 C 6.203125 -47.488281 7.101562 -46.988281 8.1875 -46.65625 C 9.269531 -46.332031 10.351562 -46.140625 11.4375 -46.078125 Z M 11.4375 -46.078125 "/></g></g></g><g fill="#000000" fill-opacity="1"><g transform="translate(192.931076, 100.528052)"><g><path d="M 51.84375 -51.65625 C 50.519531 -49.257812 49.046875 -46.9375 47.421875 -44.6875 C 45.804688 -42.4375 44.28125 -40.140625 42.84375 -37.796875 C 42.71875 -37.617188 42.59375 -37.4375 42.46875 -37.25 C 42.351562 -37.070312 42.238281 -36.894531 42.125 -36.71875 C 42.601562 -35.757812 42.867188 -34.707031 42.921875 -33.5625 C 42.984375 -32.425781 42.535156 -31.46875 41.578125 -30.6875 C 41.515625 -30.625 41.453125 -30.59375 41.390625 -30.59375 C 41.335938 -30.59375 41.28125 -30.566406 41.21875 -30.515625 C 41.101562 -29.910156 40.894531 -29.457031 40.59375 -29.15625 C 39.6875 -28.320312 38.457031 -27.960938 36.90625 -28.078125 L 34.65625 -24.03125 C 32.007812 -19.40625 29.519531 -14.695312 27.1875 -9.90625 C 26.582031 -8.757812 25.992188 -7.585938 25.421875 -6.390625 C 24.847656 -5.191406 24.203125 -4.050781 23.484375 -2.96875 C 23.066406 -2.25 22.554688 -1.617188 21.953125 -1.078125 C 21.359375 -0.535156 20.609375 -0.207031 19.703125 -0.09375 C 19.410156 -0.09375 19.265625 -0.210938 19.265625 -0.453125 C 18.359375 -0.0234375 17.347656 0.0507812 16.234375 -0.21875 C 15.128906 -0.488281 14.257812 -1.070312 13.625 -1.96875 C 13 -2.875 12.867188 -3.957031 13.234375 -5.21875 C 13.648438 -6.476562 14.140625 -7.738281 14.703125 -9 C 15.273438 -10.257812 15.832031 -11.488281 16.375 -12.6875 C 16.800781 -13.53125 17.191406 -14.367188 17.546875 -15.203125 C 17.910156 -16.046875 18.300781 -16.859375 18.71875 -17.640625 C 18.65625 -17.753906 18.578125 -17.875 18.484375 -18 C 18.398438 -18.125 18.328125 -18.242188 18.265625 -18.359375 C 17.847656 -17.578125 17.441406 -16.796875 17.046875 -16.015625 C 16.660156 -15.234375 16.289062 -14.425781 15.9375 -13.59375 C 14.675781 -11.007812 13.503906 -8.398438 12.421875 -5.765625 C 12.421875 -6.421875 12.445312 -7.0625 12.5 -7.6875 C 12.5625 -8.320312 12.625 -8.941406 12.6875 -9.546875 C 13.53125 -11.460938 14.351562 -13.332031 15.15625 -15.15625 C 15.96875 -16.988281 16.796875 -18.835938 17.640625 -20.703125 C 17.578125 -21.484375 17.785156 -22.289062 18.265625 -23.125 L 20.34375 -26.28125 C 20.457031 -26.519531 20.515625 -26.640625 20.515625 -26.640625 C 21.710938 -28.984375 23.003906 -31.382812 24.390625 -33.84375 C 23.671875 -34.195312 23.007812 -34.550781 22.40625 -34.90625 C 21.8125 -35.269531 21.394531 -35.515625 21.15625 -35.640625 C 19.46875 -36.660156 17.800781 -37.691406 16.15625 -38.734375 C 14.507812 -39.785156 12.8125 -40.796875 11.0625 -41.765625 C 10.707031 -42.003906 10.441406 -42.148438 10.265625 -42.203125 C 9.835938 -42.390625 9.414062 -42.585938 9 -42.796875 C 8.582031 -43.003906 8.160156 -43.226562 7.734375 -43.46875 C 7.378906 -43.707031 7.003906 -43.914062 6.609375 -44.09375 C 6.222656 -44.28125 5.820312 -44.460938 5.40625 -44.640625 L 5.125 -45.1875 C 5.007812 -45.1875 4.890625 -45.242188 4.765625 -45.359375 C 4.109375 -45.835938 3.375 -46.363281 2.5625 -46.9375 C 1.75 -47.507812 1.085938 -48.171875 0.578125 -48.921875 C 0.0664062 -49.671875 -0.125 -50.523438 0 -51.484375 C 0.125 -52.023438 0.242188 -52.382812 0.359375 -52.5625 C -0.117188 -52.976562 -0.34375 -53.5625 -0.3125 -54.3125 C -0.28125 -55.0625 -0.0546875 -55.78125 0.359375 -56.46875 C 0.773438 -57.164062 1.253906 -57.570312 1.796875 -57.6875 C 2.273438 -57.8125 2.609375 -57.875 2.796875 -57.875 L 3.421875 -57.875 C 4.203125 -57.875 4.984375 -57.722656 5.765625 -57.421875 C 6.546875 -57.117188 7.296875 -56.789062 8.015625 -56.4375 C 9.566406 -55.832031 11.09375 -55.195312 12.59375 -54.53125 C 14.09375 -53.875 15.566406 -53.1875 17.015625 -52.46875 C 19.296875 -51.332031 21.5625 -50.144531 23.8125 -48.90625 C 26.0625 -47.675781 28.234375 -46.375 30.328125 -45 L 32.484375 -48.515625 C 33.148438 -49.535156 33.8125 -50.550781 34.46875 -51.5625 C 35.125 -52.582031 35.785156 -53.601562 36.453125 -54.625 C 37.046875 -55.53125 37.671875 -56.476562 38.328125 -57.46875 C 38.992188 -58.457031 39.71875 -59.34375 40.5 -60.125 C 40.625 -60.238281 40.804688 -60.265625 41.046875 -60.203125 C 41.285156 -60.148438 41.429688 -60.03125 41.484375 -59.84375 C 41.847656 -59.789062 42.148438 -59.613281 42.390625 -59.3125 C 42.628906 -59.007812 42.597656 -58.707031 42.296875 -58.40625 C 40.796875 -56.363281 39.335938 -54.289062 37.921875 -52.1875 C 36.515625 -50.09375 35.125 -47.96875 33.75 -45.8125 C 33.507812 -45.507812 33.296875 -45.175781 33.109375 -44.8125 C 32.929688 -44.457031 32.753906 -44.097656 32.578125 -43.734375 C 32.515625 -43.734375 32.484375 -43.71875 32.484375 -43.6875 C 32.484375 -43.664062 32.484375 -43.65625 32.484375 -43.65625 C 32.546875 -43.707031 32.679688 -43.644531 32.890625 -43.46875 C 33.097656 -43.289062 33.203125 -43.203125 33.203125 -43.203125 C 33.203125 -43.203125 33.410156 -43.515625 33.828125 -44.140625 C 34.253906 -44.773438 34.722656 -45.507812 35.234375 -46.34375 C 35.742188 -47.1875 36.207031 -47.921875 36.625 -48.546875 C 37.050781 -49.179688 37.289062 -49.53125 37.34375 -49.59375 C 38.550781 -51.332031 39.738281 -53.085938 40.90625 -54.859375 C 42.070312 -56.628906 43.46875 -58.171875 45.09375 -59.484375 C 45.445312 -59.847656 45.804688 -59.96875 46.171875 -59.84375 C 47.015625 -60.207031 47.941406 -60.285156 48.953125 -60.078125 C 49.972656 -59.867188 50.785156 -59.429688 51.390625 -58.765625 C 52.234375 -57.984375 52.695312 -57.035156 52.78125 -55.921875 C 52.875 -54.816406 52.617188 -53.785156 52.015625 -52.828125 C 52.140625 -52.347656 52.082031 -51.957031 51.84375 -51.65625 Z M 51.84375 -51.65625 "/></g></g></g><g fill="#000000" fill-opacity="1"><g transform="translate(235.143445, 100.528052)"><g/></g></g><g fill="#000000" fill-opacity="1"><g transform="translate(244.95144, 100.528052)"><g/></g></g><g fill="#000000" fill-opacity="1"><g transform="translate(254.760631, 100.528052)"><g><path d="M 50.671875 -4.5 C 50.304688 -3.238281 49.582031 -2.320312 48.5 -1.75 C 47.425781 -1.1875 46.226562 -0.84375 44.90625 -0.71875 C 43.59375 -0.601562 42.363281 -0.515625 41.21875 -0.453125 C 39.363281 -0.390625 37.503906 -0.460938 35.640625 -0.671875 C 33.773438 -0.878906 31.914062 -1.015625 30.0625 -1.078125 C 27.476562 -1.203125 24.910156 -1.1875 22.359375 -1.03125 C 19.816406 -0.882812 17.285156 -0.660156 14.765625 -0.359375 C 14.097656 0.0546875 13.285156 0.265625 12.328125 0.265625 C 11.847656 0.265625 11.519531 0.238281 11.34375 0.1875 C 10.738281 0.238281 10.148438 0.320312 9.578125 0.4375 C 9.015625 0.5625 8.460938 0.6875 7.921875 0.8125 C 7.078125 0.925781 6.296875 0.800781 5.578125 0.4375 C 4.859375 0.0820312 4.378906 -0.507812 4.140625 -1.34375 C 4.078125 -1.46875 4.046875 -1.617188 4.046875 -1.796875 C 3.691406 -2.335938 3.515625 -2.9375 3.515625 -3.59375 C 3.515625 -4.613281 3.84375 -5.425781 4.5 -6.03125 C 5.15625 -6.632812 5.96875 -6.960938 6.9375 -7.015625 C 7.050781 -7.015625 7.140625 -7.046875 7.203125 -7.109375 C 7.140625 -9.804688 7.003906 -12.503906 6.796875 -15.203125 C 6.585938 -17.910156 6.363281 -20.613281 6.125 -23.3125 C 5.164062 -23.613281 4.367188 -24.09375 3.734375 -24.75 C 3.109375 -25.40625 2.796875 -26.304688 2.796875 -27.453125 C 2.796875 -28.347656 3.035156 -29.125 3.515625 -29.78125 C 3.992188 -30.445312 4.625 -30.957031 5.40625 -31.3125 C 5.40625 -31.375 5.390625 -31.421875 5.359375 -31.453125 C 5.328125 -31.484375 5.3125 -31.5 5.3125 -31.5 C 5.132812 -33.78125 4.953125 -36.046875 4.765625 -38.296875 C 4.585938 -40.546875 4.378906 -42.78125 4.140625 -45 C 3.722656 -45.238281 3.316406 -45.507812 2.921875 -45.8125 C 2.535156 -46.113281 2.160156 -46.382812 1.796875 -46.625 C 1.203125 -47.21875 0.601562 -47.90625 0 -48.6875 C -0.601562 -49.46875 -0.992188 -50.304688 -1.171875 -51.203125 C -1.347656 -52.109375 -1.140625 -52.976562 -0.546875 -53.8125 C 0.359375 -55.019531 1.515625 -55.800781 2.921875 -56.15625 C 4.335938 -56.519531 5.734375 -56.734375 7.109375 -56.796875 C 9.929688 -56.796875 12.601562 -56.34375 15.125 -55.4375 C 17.820312 -54.539062 20.460938 -53.398438 23.046875 -52.015625 C 23.816406 -51.597656 25.070312 -50.847656 26.8125 -49.765625 C 28.5625 -48.691406 30.5 -47.375 32.625 -45.8125 C 34.75 -44.25 36.816406 -42.582031 38.828125 -40.8125 C 40.835938 -39.039062 42.519531 -37.269531 43.875 -35.5 C 45.226562 -33.726562 46.007812 -32.046875 46.21875 -30.453125 C 46.425781 -28.867188 45.78125 -27.507812 44.28125 -26.375 C 43.675781 -25.894531 43.046875 -25.488281 42.390625 -25.15625 C 41.734375 -24.820312 41.015625 -24.6875 40.234375 -24.75 C 39.210938 -24.875 38.21875 -24.992188 37.25 -25.109375 C 36.289062 -25.234375 35.210938 -25.351562 34.015625 -25.46875 L 29.703125 -25.734375 C 30.003906 -25.617188 30.257812 -25.484375 30.46875 -25.328125 C 30.675781 -25.179688 30.898438 -25.050781 31.140625 -24.9375 C 32.222656 -24.269531 33.269531 -23.59375 34.28125 -22.90625 C 35.300781 -22.21875 36.296875 -21.484375 37.265625 -20.703125 C 41.398438 -17.460938 45.085938 -13.921875 48.328125 -10.078125 C 49.171875 -9.296875 49.847656 -8.453125 50.359375 -7.546875 C 50.867188 -6.648438 50.972656 -5.632812 50.671875 -4.5 Z M 31.5 -34.734375 C 30.957031 -35.335938 30.398438 -35.910156 29.828125 -36.453125 C 29.265625 -36.992188 28.679688 -37.53125 28.078125 -38.0625 C 27.484375 -38.550781 26.957031 -39.003906 26.5 -39.421875 C 26.050781 -39.835938 25.585938 -40.195312 25.109375 -40.5 C 23.847656 -41.34375 22.539062 -42.140625 21.1875 -42.890625 C 19.84375 -43.640625 18.570312 -44.222656 17.375 -44.640625 C 16.945312 -44.753906 16.535156 -44.882812 16.140625 -45.03125 C 15.753906 -45.1875 15.351562 -45.296875 14.9375 -45.359375 L 13.5 -45.625 C 13.4375 -45.625 13.390625 -45.625 13.359375 -45.625 C 13.328125 -45.625 13.285156 -45.625 13.234375 -45.625 C 13.648438 -43.707031 13.992188 -41.773438 14.265625 -39.828125 C 14.535156 -37.878906 14.789062 -35.914062 15.03125 -33.9375 C 17.96875 -34.351562 20.90625 -34.617188 23.84375 -34.734375 C 26.425781 -34.796875 28.976562 -34.796875 31.5 -34.734375 Z M 36.359375 -11.0625 C 34.984375 -12.269531 33.546875 -13.410156 32.046875 -14.484375 C 30.546875 -15.566406 28.984375 -16.554688 27.359375 -17.453125 C 25.796875 -18.296875 24.160156 -19.125 22.453125 -19.9375 C 20.742188 -20.75 19.019531 -21.394531 17.28125 -21.875 C 17.039062 -21.988281 16.800781 -22.046875 16.5625 -22.046875 L 17.640625 -14.046875 C 17.753906 -13.140625 17.875 -12.234375 18 -11.328125 C 18.125 -10.429688 18.210938 -9.535156 18.265625 -8.640625 C 20.304688 -8.878906 22.347656 -9.0625 24.390625 -9.1875 C 26.191406 -9.238281 27.988281 -9.21875 29.78125 -9.125 C 31.582031 -9.039062 33.382812 -8.847656 35.1875 -8.546875 C 36.75 -8.367188 38.3125 -8.097656 39.875 -7.734375 C 39.332031 -8.335938 38.773438 -8.921875 38.203125 -9.484375 C 37.628906 -10.054688 37.015625 -10.582031 36.359375 -11.0625 Z M 36.359375 -11.0625 "/></g></g></g><g fill="#000000" fill-opacity="1"><g transform="translate(295.164645, 100.528052)"><g><path d="M 1.265625 -51.9375 C 1.078125 -52.53125 1.132812 -53.125 1.4375 -53.71875 C 1.738281 -54.320312 2.039062 -54.835938 2.34375 -55.265625 C 2.9375 -56.160156 3.6875 -56.910156 4.59375 -57.515625 C 4.832031 -57.753906 5.007812 -57.898438 5.125 -57.953125 C 6.332031 -58.796875 7.609375 -59.425781 8.953125 -59.84375 C 10.304688 -60.269531 11.671875 -60.300781 13.046875 -59.9375 C 14.242188 -59.632812 15.289062 -59.140625 16.1875 -58.453125 C 17.09375 -57.765625 17.757812 -56.820312 18.1875 -55.625 C 18.363281 -55.144531 18.332031 -54.691406 18.09375 -54.265625 C 17.851562 -53.847656 17.550781 -53.488281 17.1875 -53.1875 C 15.6875 -52.101562 14.097656 -51.382812 12.421875 -51.03125 C 11.878906 -50.425781 11.15625 -49.988281 10.25 -49.71875 C 9.351562 -49.445312 8.488281 -49.3125 7.65625 -49.3125 C 6.925781 -49.3125 6.21875 -49.375 5.53125 -49.5 C 4.84375 -49.625 4.171875 -49.804688 3.515625 -50.046875 C 3.085938 -50.160156 2.632812 -50.394531 2.15625 -50.75 C 1.675781 -51.113281 1.378906 -51.507812 1.265625 -51.9375 Z M 7.296875 -49.765625 C 8.609375 -49.765625 9.472656 -49.898438 9.890625 -50.171875 C 10.316406 -50.441406 10.5 -50.578125 10.4375 -50.578125 C 9.894531 -50.460938 9.296875 -50.375 8.640625 -50.3125 C 7.984375 -50.25 7.144531 -50.304688 6.125 -50.484375 C 4.800781 -50.785156 3.914062 -51.382812 3.46875 -52.28125 C 3.019531 -53.1875 3.003906 -54.148438 3.421875 -55.171875 C 3.003906 -54.691406 2.613281 -54.117188 2.25 -53.453125 C 2.070312 -53.035156 1.984375 -52.660156 1.984375 -52.328125 C 1.984375 -52.003906 2.160156 -51.691406 2.515625 -51.390625 C 3.117188 -50.910156 3.691406 -50.582031 4.234375 -50.40625 C 5.128906 -50.101562 6.148438 -49.890625 7.296875 -49.765625 Z M 16.65625 -4.765625 C 16.226562 -4.046875 15.597656 -3.535156 14.765625 -3.234375 C 14.816406 -2.941406 14.78125 -2.628906 14.65625 -2.296875 C 14.539062 -1.960938 14.273438 -1.707031 13.859375 -1.53125 C 12.773438 -0.988281 11.617188 -0.835938 10.390625 -1.078125 C 9.160156 -1.316406 8.128906 -1.859375 7.296875 -2.703125 L 7.109375 -2.96875 C 6.691406 -3.144531 6.242188 -3.414062 5.765625 -3.78125 C 4.796875 -4.675781 4.207031 -5.753906 4 -7.015625 C 3.789062 -8.273438 3.597656 -9.535156 3.421875 -10.796875 C 3.003906 -14.160156 2.6875 -17.503906 2.46875 -20.828125 C 2.257812 -24.160156 2.1875 -27.507812 2.25 -30.875 C 2.25 -32.488281 2.25 -34.117188 2.25 -35.765625 C 2.25 -37.421875 2.335938 -39.0625 2.515625 -40.6875 C 2.640625 -41.519531 2.847656 -42.34375 3.140625 -43.15625 C 3.441406 -43.96875 3.863281 -44.644531 4.40625 -45.1875 C 4.53125 -45.363281 4.648438 -45.523438 4.765625 -45.671875 C 4.890625 -45.828125 5.007812 -45.960938 5.125 -46.078125 C 5.789062 -46.492188 6.644531 -47.015625 7.6875 -47.640625 C 8.738281 -48.273438 9.773438 -48.640625 10.796875 -48.734375 C 11.816406 -48.828125 12.566406 -48.269531 13.046875 -47.0625 C 13.347656 -47.125 13.648438 -47.066406 13.953125 -46.890625 C 14.253906 -46.710938 14.429688 -46.410156 14.484375 -45.984375 C 14.484375 -44.304688 14.453125 -42.65625 14.390625 -41.03125 C 14.335938 -39.414062 14.3125 -37.769531 14.3125 -36.09375 C 14.3125 -34.46875 14.335938 -32.828125 14.390625 -31.171875 C 14.453125 -29.523438 14.515625 -27.863281 14.578125 -26.1875 C 14.578125 -25.882812 14.59375 -25.535156 14.625 -25.140625 C 14.65625 -24.753906 14.703125 -24.351562 14.765625 -23.9375 C 14.816406 -24 14.890625 -23.757812 14.984375 -23.21875 C 15.078125 -22.675781 15.148438 -22.148438 15.203125 -21.640625 C 15.265625 -21.128906 15.328125 -20.875 15.390625 -20.875 C 15.328125 -23.039062 15.28125 -25.441406 15.25 -28.078125 C 15.21875 -30.722656 15.21875 -33.363281 15.25 -36 C 15.28125 -38.632812 15.359375 -41.003906 15.484375 -43.109375 C 15.484375 -43.234375 15.585938 -43.304688 15.796875 -43.328125 C 16.003906 -43.359375 16.109375 -43.347656 16.109375 -43.296875 C 15.929688 -36.867188 16.019531 -30.457031 16.375 -24.0625 C 16.738281 -17.675781 17.34375 -11.273438 18.1875 -4.859375 C 18.238281 -4.441406 18.023438 -4.21875 17.546875 -4.1875 C 17.066406 -4.15625 16.769531 -4.347656 16.65625 -4.765625 Z M 6.65625 -41.484375 C 6 -39.453125 5.625 -37.3125 5.53125 -35.0625 C 5.445312 -32.8125 5.34375 -30.632812 5.21875 -28.53125 L 5.21875 -27.625 C 5.21875 -27.570312 5.21875 -27.546875 5.21875 -27.546875 C 5.21875 -27.546875 5.21875 -27.515625 5.21875 -27.453125 C 5.34375 -26.367188 5.460938 -25.285156 5.578125 -24.203125 C 5.703125 -23.128906 5.820312 -22.050781 5.9375 -20.96875 L 6.203125 -20.96875 C 6.203125 -23.007812 6.1875 -25.035156 6.15625 -27.046875 C 6.132812 -29.054688 6.148438 -31.082031 6.203125 -33.125 C 6.203125 -34.675781 6.273438 -36.25 6.421875 -37.84375 C 6.578125 -39.4375 6.894531 -40.953125 7.375 -42.390625 L 7.296875 -42.390625 C 6.867188 -42.085938 6.65625 -41.785156 6.65625 -41.484375 Z M 6.65625 -41.484375 "/></g></g></g><g fill="#000000" fill-opacity="1"><g transform="translate(305.872523, 100.528052)"><g><path d="M 51.390625 -53.015625 C 51.265625 -52.648438 51.144531 -52.347656 51.03125 -52.109375 C 50.96875 -51.328125 50.816406 -50.546875 50.578125 -49.765625 C 50.335938 -48.984375 49.859375 -48.351562 49.140625 -47.875 C 48.835938 -47.632812 48.390625 -47.457031 47.796875 -47.34375 C 47.554688 -47.101562 47.34375 -46.984375 47.15625 -46.984375 C 44.875 -46.554688 42.59375 -46.132812 40.3125 -45.71875 C 38.039062 -45.300781 35.765625 -44.941406 33.484375 -44.640625 C 33.484375 -42.660156 33.46875 -40.679688 33.4375 -38.703125 C 33.40625 -36.722656 33.390625 -34.742188 33.390625 -32.765625 C 33.390625 -30.003906 33.40625 -27.257812 33.4375 -24.53125 C 33.46875 -21.800781 33.484375 -19.054688 33.484375 -16.296875 C 33.535156 -14.734375 33.59375 -13.15625 33.65625 -11.5625 C 33.71875 -9.976562 33.78125 -8.40625 33.84375 -6.84375 C 33.78125 -5.757812 33.613281 -4.722656 33.34375 -3.734375 C 33.070312 -2.742188 32.519531 -1.921875 31.6875 -1.265625 L 31.6875 -1.4375 C 31.738281 -2.101562 31.765625 -2.75 31.765625 -3.375 C 31.765625 -4 31.796875 -4.613281 31.859375 -5.21875 L 31.859375 -8.640625 C 31.679688 -7.859375 31.53125 -6.894531 31.40625 -5.75 C 31.289062 -4.613281 31.082031 -3.597656 30.78125 -2.703125 C 30.476562 -1.742188 29.847656 -1.019531 28.890625 -0.53125 C 27.929688 -0.0507812 26.972656 0.0625 26.015625 -0.1875 C 24.148438 -0.78125 22.914062 -1.960938 22.3125 -3.734375 C 21.71875 -5.503906 21.359375 -7.257812 21.234375 -9 C 21.117188 -11.28125 21.078125 -13.585938 21.109375 -15.921875 C 21.140625 -18.265625 21.179688 -20.578125 21.234375 -22.859375 C 21.359375 -25.140625 21.492188 -27.445312 21.640625 -29.78125 C 21.796875 -32.125 21.898438 -34.46875 21.953125 -36.8125 L 22.140625 -40.765625 L 22.140625 -43.65625 C 21.535156 -43.65625 20.945312 -43.65625 20.375 -43.65625 C 19.8125 -43.65625 19.226562 -43.65625 18.625 -43.65625 C 16.164062 -43.65625 13.769531 -43.742188 11.4375 -43.921875 C 10.46875 -44.035156 9.519531 -44.195312 8.59375 -44.40625 C 7.664062 -44.625 6.78125 -44.972656 5.9375 -45.453125 C 5.34375 -45.867188 4.789062 -46.375 4.28125 -46.96875 C 3.769531 -47.570312 3.363281 -48.234375 3.0625 -48.953125 C 2.15625 -49.441406 1.476562 -50.179688 1.03125 -51.171875 C 0.582031 -52.160156 0.476562 -53.191406 0.71875 -54.265625 C 1.019531 -55.171875 1.570312 -55.984375 2.375 -56.703125 C 3.1875 -57.421875 4.078125 -57.71875 5.046875 -57.59375 C 7.503906 -57.351562 9.960938 -57.160156 12.421875 -57.015625 C 14.878906 -56.867188 17.335938 -56.796875 19.796875 -56.796875 C 19.796875 -56.847656 19.8125 -56.890625 19.84375 -56.921875 C 19.875 -56.953125 19.890625 -57 19.890625 -57.0625 C 15.023438 -57.363281 10.164062 -57.90625 5.3125 -58.6875 C 5.1875 -58.6875 5.140625 -58.773438 5.171875 -58.953125 C 5.203125 -59.128906 5.28125 -59.1875 5.40625 -59.125 C 11.695312 -58.769531 17.992188 -58.648438 24.296875 -58.765625 C 30.597656 -58.890625 36.867188 -59.222656 43.109375 -59.765625 C 43.585938 -59.878906 44.066406 -59.953125 44.546875 -59.984375 C 45.023438 -60.015625 45.476562 -60.0625 45.90625 -60.125 C 46.144531 -60.125 46.394531 -60.132812 46.65625 -60.15625 C 46.925781 -60.1875 47.1875 -60.175781 47.4375 -60.125 C 48.09375 -60.238281 48.765625 -60.328125 49.453125 -60.390625 C 50.140625 -60.453125 50.816406 -60.507812 51.484375 -60.5625 C 51.898438 -60.625 52.148438 -60.398438 52.234375 -59.890625 C 52.328125 -59.378906 52.132812 -59.066406 51.65625 -58.953125 C 51.351562 -58.953125 51.144531 -58.921875 51.03125 -58.859375 C 51.269531 -58.742188 51.445312 -58.625 51.5625 -58.5 C 52.582031 -57.894531 53.078125 -56.945312 53.046875 -55.65625 C 53.023438 -54.375 52.472656 -53.492188 51.390625 -53.015625 Z M 11.4375 -46.078125 C 12.988281 -45.960938 14.578125 -45.960938 16.203125 -46.078125 C 14.398438 -46.253906 12.597656 -46.507812 10.796875 -46.84375 C 8.992188 -47.175781 7.222656 -47.613281 5.484375 -48.15625 C 6.203125 -47.488281 7.101562 -46.988281 8.1875 -46.65625 C 9.269531 -46.332031 10.351562 -46.140625 11.4375 -46.078125 Z M 11.4375 -46.078125 "/></g></g></g></svg>