<svg xmlns="http://www.w3.org/2000/svg" xmlns:xlink="http://www.w3.org/1999/xlink" width="500" zoomAndPan="magnify" viewBox="0 0 375 374.999991" height="500" preserveAspectRatio="xMidYMid meet" version="1.0"><defs><g/></defs><g fill="#ffffff" fill-opacity="1"><g transform="translate(45.325783, 209.999986)"><g><path d="M 42.828125 -44.171875 C 42.722656 -43.867188 42.625 -43.617188 42.53125 -43.421875 C 42.476562 -42.773438 42.347656 -42.125 42.140625 -41.46875 C 41.941406 -40.820312 41.546875 -40.300781 40.953125 -39.90625 C 40.703125 -39.695312 40.328125 -39.546875 39.828125 -39.453125 C 39.628906 -39.253906 39.453125 -39.15625 39.296875 -39.15625 C 37.398438 -38.800781 35.5 -38.445312 33.59375 -38.09375 C 31.695312 -37.75 29.800781 -37.453125 27.90625 -37.203125 C 27.90625 -35.546875 27.890625 -33.894531 27.859375 -32.25 C 27.835938 -30.601562 27.828125 -28.953125 27.828125 -27.296875 C 27.828125 -24.992188 27.835938 -22.707031 27.859375 -20.4375 C 27.890625 -18.164062 27.90625 -15.878906 27.90625 -13.578125 C 27.945312 -12.273438 27.992188 -10.960938 28.046875 -9.640625 C 28.097656 -8.316406 28.148438 -7.003906 28.203125 -5.703125 C 28.148438 -4.796875 28.007812 -3.929688 27.78125 -3.109375 C 27.5625 -2.285156 27.101562 -1.597656 26.40625 -1.046875 L 26.40625 -1.203125 C 26.445312 -1.753906 26.46875 -2.289062 26.46875 -2.8125 C 26.46875 -3.332031 26.492188 -3.84375 26.546875 -4.34375 L 26.546875 -7.203125 C 26.398438 -6.546875 26.273438 -5.742188 26.171875 -4.796875 C 26.078125 -3.847656 25.90625 -3 25.65625 -2.25 C 25.40625 -1.445312 24.878906 -0.84375 24.078125 -0.4375 C 23.273438 -0.0390625 22.472656 0.0507812 21.671875 -0.15625 C 20.117188 -0.65625 19.09375 -1.640625 18.59375 -3.109375 C 18.09375 -4.585938 17.796875 -6.050781 17.703125 -7.5 C 17.597656 -9.394531 17.554688 -11.316406 17.578125 -13.265625 C 17.609375 -15.222656 17.648438 -17.148438 17.703125 -19.046875 C 17.796875 -20.953125 17.90625 -22.878906 18.03125 -24.828125 C 18.15625 -26.773438 18.242188 -28.722656 18.296875 -30.671875 L 18.453125 -33.96875 L 18.453125 -36.375 C 17.953125 -36.375 17.460938 -36.375 16.984375 -36.375 C 16.515625 -36.375 16.03125 -36.375 15.53125 -36.375 C 13.476562 -36.375 11.476562 -36.445312 9.53125 -36.59375 C 8.726562 -36.695312 7.9375 -36.835938 7.15625 -37.015625 C 6.382812 -37.191406 5.648438 -37.476562 4.953125 -37.875 C 4.453125 -38.226562 3.988281 -38.65625 3.5625 -39.15625 C 3.132812 -39.65625 2.796875 -40.203125 2.546875 -40.796875 C 1.796875 -41.203125 1.234375 -41.816406 0.859375 -42.640625 C 0.484375 -43.460938 0.394531 -44.320312 0.59375 -45.21875 C 0.84375 -45.96875 1.304688 -46.644531 1.984375 -47.25 C 2.660156 -47.851562 3.398438 -48.101562 4.203125 -48 C 6.253906 -47.800781 8.300781 -47.640625 10.34375 -47.515625 C 12.394531 -47.390625 14.445312 -47.328125 16.5 -47.328125 C 16.5 -47.378906 16.507812 -47.414062 16.53125 -47.4375 C 16.5625 -47.457031 16.578125 -47.492188 16.578125 -47.546875 C 12.523438 -47.796875 8.472656 -48.25 4.421875 -48.90625 C 4.328125 -48.90625 4.289062 -48.976562 4.3125 -49.125 C 4.332031 -49.269531 4.394531 -49.320312 4.5 -49.28125 C 9.75 -48.976562 15 -48.875 20.25 -48.96875 C 25.5 -49.070312 30.722656 -49.347656 35.921875 -49.796875 C 36.328125 -49.898438 36.726562 -49.960938 37.125 -49.984375 C 37.519531 -50.015625 37.894531 -50.050781 38.25 -50.09375 C 38.445312 -50.09375 38.65625 -50.101562 38.875 -50.125 C 39.101562 -50.15625 39.320312 -50.144531 39.53125 -50.09375 C 40.070312 -50.195312 40.628906 -50.273438 41.203125 -50.328125 C 41.785156 -50.378906 42.351562 -50.425781 42.90625 -50.46875 C 43.25 -50.519531 43.457031 -50.332031 43.53125 -49.90625 C 43.613281 -49.488281 43.453125 -49.226562 43.046875 -49.125 C 42.796875 -49.125 42.625 -49.097656 42.53125 -49.046875 C 42.726562 -48.953125 42.875 -48.851562 42.96875 -48.75 C 43.820312 -48.25 44.234375 -47.460938 44.203125 -46.390625 C 44.179688 -45.316406 43.722656 -44.578125 42.828125 -44.171875 Z M 9.53125 -38.40625 C 10.820312 -38.300781 12.144531 -38.300781 13.5 -38.40625 C 12 -38.550781 10.5 -38.757812 9 -39.03125 C 7.5 -39.3125 6.023438 -39.675781 4.578125 -40.125 C 5.171875 -39.570312 5.914062 -39.15625 6.8125 -38.875 C 7.71875 -38.601562 8.625 -38.445312 9.53125 -38.40625 Z M 9.53125 -38.40625 "/></g></g></g><g fill="#ffffff" fill-opacity="1"><g transform="translate(82.000735, 209.999986)"><g><path d="M 1.71875 -39.59375 C 4.21875 -40.894531 6.816406 -41.992188 9.515625 -42.890625 C 12.222656 -43.796875 14.925781 -44.597656 17.625 -45.296875 L 19.34375 -45.75 C 20.894531 -46.050781 22.445312 -46.335938 24 -46.609375 C 25.550781 -46.890625 27.125 -47.078125 28.71875 -47.171875 C 29.070312 -47.222656 29.410156 -47.25 29.734375 -47.25 C 30.054688 -47.25 30.394531 -47.25 30.75 -47.25 C 29.300781 -46.894531 27.828125 -46.53125 26.328125 -46.15625 C 24.828125 -45.78125 23.351562 -45.421875 21.90625 -45.078125 C 19.351562 -44.523438 16.8125 -43.9375 14.28125 -43.3125 C 11.757812 -42.6875 9.25 -41.945312 6.75 -41.09375 C 5.894531 -40.84375 5.054688 -40.554688 4.234375 -40.234375 C 3.410156 -39.910156 2.570312 -39.550781 1.71875 -39.15625 C 1.519531 -39.25 1.519531 -39.394531 1.71875 -39.59375 Z M 43.796875 -9.078125 C 43.703125 -8.628906 43.453125 -8.378906 43.046875 -8.328125 C 40.296875 -7.828125 37.53125 -7.210938 34.75 -6.484375 C 31.976562 -5.765625 29.269531 -4.925781 26.625 -3.96875 C 25.375 -3.519531 24.109375 -3.070312 22.828125 -2.625 C 21.554688 -2.175781 20.296875 -1.675781 19.046875 -1.125 L 18.96875 -1.125 C 18.925781 -1.070312 18.851562 -1.03125 18.75 -1 C 18.644531 -0.976562 18.546875 -0.945312 18.453125 -0.90625 C 18.046875 -0.695312 17.628906 -0.519531 17.203125 -0.375 C 16.785156 -0.226562 16.375 -0.0507812 15.96875 0.15625 L 15.90625 0.21875 C 15.601562 0.425781 15.035156 0.675781 14.203125 0.96875 C 13.378906 1.269531 12.601562 1.519531 11.875 1.71875 C 11.15625 1.925781 10.796875 2.03125 10.796875 2.03125 C 10.796875 2.03125 10.707031 2.039062 10.53125 2.0625 C 10.363281 2.082031 10.203125 2.09375 10.046875 2.09375 C 9.453125 2.195312 8.851562 2.195312 8.25 2.09375 C 7.644531 2 7.195312 1.625 6.90625 0.96875 C 6.75 0.675781 6.722656 0.328125 6.828125 -0.078125 C 5.878906 -0.472656 5.140625 -1.15625 4.609375 -2.125 C 4.085938 -3.101562 4 -4.070312 4.34375 -5.03125 C 4.144531 -6.320312 3.984375 -7.628906 3.859375 -8.953125 C 3.734375 -10.285156 3.625 -11.601562 3.53125 -12.90625 L 2.625 -21.90625 L 1.71875 -30.453125 C 0.769531 -31.503906 0.375 -32.726562 0.53125 -34.125 C 0.675781 -35.519531 1.300781 -36.695312 2.40625 -37.65625 C 2.445312 -37.75 2.492188 -37.84375 2.546875 -37.9375 C 2.597656 -38.039062 2.648438 -38.144531 2.703125 -38.25 C 3.503906 -38.601562 4.300781 -38.925781 5.09375 -39.21875 C 5.894531 -39.519531 6.695312 -39.796875 7.5 -40.046875 C 10 -40.898438 12.507812 -41.640625 15.03125 -42.265625 C 17.5625 -42.890625 20.101562 -43.453125 22.65625 -43.953125 C 24.65625 -44.398438 26.628906 -44.882812 28.578125 -45.40625 C 30.523438 -45.9375 32.472656 -46.453125 34.421875 -46.953125 C 34.671875 -46.898438 34.929688 -46.859375 35.203125 -46.828125 C 35.484375 -46.804688 35.722656 -46.75 35.921875 -46.65625 L 37.125 -46.203125 C 37.320312 -46.046875 37.519531 -45.878906 37.71875 -45.703125 C 37.925781 -45.535156 38.128906 -45.375 38.328125 -45.21875 C 38.578125 -44.425781 38.75 -43.640625 38.84375 -42.859375 C 38.945312 -42.085938 38.925781 -41.328125 38.78125 -40.578125 L 35.03125 -39.453125 C 34.226562 -39.203125 33.390625 -38.953125 32.515625 -38.703125 C 31.640625 -38.453125 30.773438 -38.203125 29.921875 -37.953125 C 29.722656 -37.847656 29.570312 -37.796875 29.46875 -37.796875 C 28.519531 -37.546875 27.40625 -37.234375 26.125 -36.859375 C 24.851562 -36.484375 23.582031 -36.109375 22.3125 -35.734375 C 21.039062 -35.359375 19.953125 -35.019531 19.046875 -34.71875 C 18.148438 -34.425781 17.601562 -34.226562 17.40625 -34.125 C 16.195312 -33.726562 14.992188 -33.300781 13.796875 -32.84375 C 12.597656 -32.394531 11.425781 -31.921875 10.28125 -31.421875 L 10.125 -31.28125 C 10.175781 -31.03125 10.238281 -30.613281 10.3125 -30.03125 C 10.382812 -29.457031 10.457031 -28.921875 10.53125 -28.421875 C 10.613281 -27.921875 10.65625 -27.597656 10.65625 -27.453125 C 12.75 -28.347656 14.832031 -29.234375 16.90625 -30.109375 C 18.988281 -30.984375 21.101562 -31.820312 23.25 -32.625 C 24.445312 -32.925781 25.65625 -33.238281 26.875 -33.5625 C 28.101562 -33.882812 29.320312 -34.222656 30.53125 -34.578125 L 31.5 -34.796875 C 31.945312 -34.898438 32.382812 -34.960938 32.8125 -34.984375 C 33.238281 -35.015625 33.675781 -35.050781 34.125 -35.09375 C 35.070312 -35.144531 35.96875 -35.082031 36.8125 -34.90625 C 37.664062 -34.738281 38.34375 -34.203125 38.84375 -33.296875 C 38.945312 -33.203125 39.007812 -33.101562 39.03125 -33 C 39.0625 -32.894531 39.101562 -32.796875 39.15625 -32.703125 C 39.25 -32.546875 39.320312 -32.394531 39.375 -32.25 C 39.425781 -32.101562 39.476562 -31.953125 39.53125 -31.796875 C 39.570312 -31.742188 39.617188 -31.71875 39.671875 -31.71875 C 40.367188 -31.375 40.796875 -30.75 40.953125 -29.84375 C 41.097656 -29.144531 40.984375 -28.429688 40.609375 -27.703125 C 40.234375 -26.984375 39.695312 -26.445312 39 -26.09375 C 38.195312 -25.75 37.382812 -25.535156 36.5625 -25.453125 C 35.738281 -25.378906 34.898438 -25.242188 34.046875 -25.046875 C 33.148438 -24.898438 32.238281 -24.738281 31.3125 -24.5625 C 30.382812 -24.382812 29.472656 -24.171875 28.578125 -23.921875 C 26.773438 -23.421875 24.984375 -22.882812 23.203125 -22.3125 C 21.429688 -21.738281 19.671875 -21.078125 17.921875 -20.328125 C 16.828125 -19.878906 15.765625 -19.40625 14.734375 -18.90625 C 13.710938 -18.40625 12.675781 -17.878906 11.625 -17.328125 L 12.078125 -12.453125 C 12.078125 -12.398438 12.078125 -12.359375 12.078125 -12.328125 C 12.078125 -12.304688 12.078125 -12.25 12.078125 -12.15625 L 12.296875 -12.296875 C 13.148438 -12.703125 13.988281 -13.066406 14.8125 -13.390625 C 15.632812 -13.710938 16.445312 -14.050781 17.25 -14.40625 L 23.625 -16.875 C 24.175781 -17.125 24.738281 -17.347656 25.3125 -17.546875 C 25.882812 -17.742188 26.445312 -17.945312 27 -18.15625 C 27.894531 -18.5 28.789062 -18.832031 29.6875 -19.15625 C 30.59375 -19.488281 31.5 -19.800781 32.40625 -20.09375 L 35.328125 -21 C 35.722656 -21.101562 36.117188 -21.238281 36.515625 -21.40625 C 36.921875 -21.582031 37.320312 -21.722656 37.71875 -21.828125 C 39.175781 -22.128906 40.363281 -22.003906 41.28125 -21.453125 C 42.207031 -20.898438 42.945312 -20.097656 43.5 -19.046875 C 44.050781 -17.992188 44.460938 -16.84375 44.734375 -15.59375 C 45.015625 -14.34375 45.175781 -13.195312 45.21875 -12.15625 C 45.269531 -11.5 45.15625 -10.90625 44.875 -10.375 C 44.601562 -9.851562 44.242188 -9.421875 43.796875 -9.078125 Z M 25.65625 -24.96875 C 24.5 -24.625 23.332031 -24.273438 22.15625 -23.921875 C 20.988281 -23.578125 19.828125 -23.203125 18.671875 -22.796875 C 17.921875 -22.597656 17.179688 -22.382812 16.453125 -22.15625 C 15.734375 -21.9375 15.023438 -21.726562 14.328125 -21.53125 C 14.171875 -20.675781 13.769531 -19.972656 13.125 -19.421875 C 14.976562 -20.367188 16.863281 -21.21875 18.78125 -21.96875 C 20.707031 -22.71875 22.597656 -23.46875 24.453125 -24.21875 C 24.847656 -24.425781 25.269531 -24.601562 25.71875 -24.75 Z M 9.078125 0.96875 C 9.628906 1.019531 10.253906 1.03125 10.953125 1 C 11.648438 0.976562 12.050781 0.945312 12.15625 0.90625 C 12.25 0.90625 12.320312 0.878906 12.375 0.828125 C 12.675781 0.671875 12.972656 0.519531 13.265625 0.375 C 13.566406 0.226562 13.84375 0.078125 14.09375 -0.078125 C 14.695312 -0.378906 15.285156 -0.675781 15.859375 -0.96875 C 16.429688 -1.269531 16.992188 -1.570312 17.546875 -1.875 L 17.546875 -2.03125 C 16.898438 -1.78125 16.222656 -1.53125 15.515625 -1.28125 C 14.816406 -1.03125 14.117188 -0.78125 13.421875 -0.53125 C 12.722656 -0.28125 12.007812 -0.0195312 11.28125 0.25 C 10.5625 0.53125 9.828125 0.769531 9.078125 0.96875 Z M 9.078125 0.96875 "/></g></g></g><g fill="#ffffff" fill-opacity="1"><g transform="translate(120.175688, 209.999986)"><g><path d="M 41.921875 -0.828125 C 41.222656 -0.628906 40.660156 -0.628906 40.234375 -0.828125 C 39.804688 -1.023438 39.394531 -1.398438 39 -1.953125 C 39 -1.953125 38.597656 -2.613281 37.796875 -3.9375 C 36.992188 -5.257812 35.832031 -7.046875 34.3125 -9.296875 C 32.789062 -11.546875 30.953125 -14 28.796875 -16.65625 C 28.703125 -16.800781 28.34375 -17.210938 27.71875 -17.890625 C 27.09375 -18.566406 26.488281 -19.203125 25.90625 -19.796875 C 25.332031 -20.398438 25.046875 -20.703125 25.046875 -20.703125 L 24.671875 -20.171875 C 25.023438 -19.828125 25.347656 -19.46875 25.640625 -19.09375 C 25.941406 -18.71875 26.269531 -18.328125 26.625 -17.921875 C 28.675781 -15.472656 30.675781 -12.960938 32.625 -10.390625 C 34.570312 -7.816406 36.320312 -5.128906 37.875 -2.328125 C 38.125 -1.878906 38.046875 -1.53125 37.640625 -1.28125 C 37.242188 -1.03125 36.894531 -1.078125 36.59375 -1.421875 C 35.300781 -3.078125 34.03125 -4.753906 32.78125 -6.453125 C 31.53125 -8.148438 30.28125 -9.847656 29.03125 -11.546875 C 28.375 -12.296875 27.71875 -13.046875 27.0625 -13.796875 C 26.414062 -14.546875 25.769531 -15.296875 25.125 -16.046875 C 24.769531 -16.398438 24.429688 -16.75 24.109375 -17.09375 C 23.785156 -17.445312 23.472656 -17.800781 23.171875 -18.15625 C 21.273438 -15.550781 19.425781 -12.921875 17.625 -10.265625 C 15.820312 -7.617188 14.046875 -4.945312 12.296875 -2.25 C 12.097656 -1.894531 11.796875 -1.726562 11.390625 -1.75 C 10.992188 -1.78125 10.695312 -1.945312 10.5 -2.25 C 10.300781 -2.101562 10.078125 -2.101562 9.828125 -2.25 C 9.671875 -2.050781 9.519531 -1.847656 9.375 -1.640625 C 9.226562 -1.441406 9.078125 -1.242188 8.921875 -1.046875 C 8.523438 -0.492188 8 -0.0195312 7.34375 0.375 C 6.695312 0.769531 6 0.867188 5.25 0.671875 C 3.800781 0.222656 2.988281 -0.609375 2.8125 -1.828125 C 2.632812 -3.054688 2.820312 -4.269531 3.375 -5.46875 C 3.820312 -6.46875 4.296875 -7.476562 4.796875 -8.5 C 5.296875 -9.53125 5.796875 -10.519531 6.296875 -11.46875 C 7.398438 -14.019531 8.625 -16.507812 9.96875 -18.9375 C 11.320312 -21.363281 12.75 -23.726562 14.25 -26.03125 C 14.394531 -26.226562 14.53125 -26.425781 14.65625 -26.625 C 14.78125 -26.820312 14.921875 -27.019531 15.078125 -27.21875 C 15.222656 -27.425781 14.921875 -27.90625 14.171875 -28.65625 C 13.421875 -29.40625 12.507812 -30.238281 11.4375 -31.15625 C 10.363281 -32.082031 9.375 -32.90625 8.46875 -33.625 C 7.570312 -34.351562 7.050781 -34.796875 6.90625 -34.953125 C 6.15625 -35.597656 5.34375 -36.257812 4.46875 -36.9375 C 3.59375 -37.613281 2.878906 -38.351562 2.328125 -39.15625 C 2.273438 -39.25 2.285156 -39.332031 2.359375 -39.40625 C 2.429688 -39.488281 2.519531 -39.503906 2.625 -39.453125 C 3.375 -39.253906 4.125 -38.914062 4.875 -38.4375 C 5.625 -37.957031 6.320312 -37.445312 6.96875 -36.90625 L 8.09375 -36.15625 C 8.050781 -36.25 7.976562 -36.332031 7.875 -36.40625 C 7.769531 -36.488281 7.671875 -36.578125 7.578125 -36.671875 C 7.078125 -37.117188 6.578125 -37.566406 6.078125 -38.015625 C 5.578125 -38.472656 5.078125 -38.925781 4.578125 -39.375 L 3.453125 -40.5 C 3.046875 -40.300781 2.617188 -40.328125 2.171875 -40.578125 C 2.023438 -40.671875 1.800781 -40.867188 1.5 -41.171875 C 1.300781 -41.523438 1.203125 -41.976562 1.203125 -42.53125 C 1.453125 -43.976562 2.203125 -45.078125 3.453125 -45.828125 C 4.703125 -46.578125 6 -46.75 7.34375 -46.34375 C 8.75 -46 9.988281 -45.398438 11.0625 -44.546875 C 12.132812 -43.703125 13.195312 -42.828125 14.25 -41.921875 C 15.394531 -40.828125 16.539062 -39.738281 17.6875 -38.65625 C 18.84375 -37.582031 19.972656 -36.472656 21.078125 -35.328125 L 21.296875 -35.625 C 21.347656 -35.675781 21.375 -35.703125 21.375 -35.703125 C 21.375 -35.703125 21.398438 -35.726562 21.453125 -35.78125 C 21.503906 -35.925781 21.550781 -36.070312 21.59375 -36.21875 C 21.644531 -36.375 21.722656 -36.5 21.828125 -36.59375 C 22.671875 -37.695312 23.519531 -38.773438 24.375 -39.828125 C 25.226562 -40.878906 26.128906 -41.878906 27.078125 -42.828125 C 27.972656 -43.773438 28.921875 -44.695312 29.921875 -45.59375 C 30.921875 -46.5 31.972656 -47.25 33.078125 -47.84375 C 33.828125 -48.25 34.625 -48.515625 35.46875 -48.640625 C 36.320312 -48.765625 37.109375 -48.660156 37.828125 -48.328125 C 38.554688 -48.003906 39.046875 -47.34375 39.296875 -46.34375 C 39.398438 -45.945312 39.425781 -45.675781 39.375 -45.53125 C 39.476562 -45.476562 39.566406 -45.398438 39.640625 -45.296875 C 39.710938 -45.203125 39.773438 -45.101562 39.828125 -45 C 40.128906 -44.445312 40.316406 -43.859375 40.390625 -43.234375 C 40.460938 -42.609375 40.347656 -42.019531 40.046875 -41.46875 C 39.847656 -40.96875 39.535156 -40.492188 39.109375 -40.046875 C 38.679688 -39.597656 38.269531 -39.175781 37.875 -38.78125 C 37.425781 -38.28125 36.960938 -37.765625 36.484375 -37.234375 C 36.015625 -36.710938 35.578125 -36.175781 35.171875 -35.625 C 34.273438 -34.570312 33.390625 -33.507812 32.515625 -32.4375 C 31.640625 -31.363281 30.773438 -30.273438 29.921875 -29.171875 C 29.671875 -28.867188 29.421875 -28.554688 29.171875 -28.234375 C 28.921875 -27.910156 28.671875 -27.570312 28.421875 -27.21875 L 28.65625 -27 C 30.800781 -29.5 33.007812 -31.972656 35.28125 -34.421875 C 37.5625 -36.867188 39.875 -39.242188 42.21875 -41.546875 C 42.320312 -41.648438 42.410156 -41.660156 42.484375 -41.578125 C 42.554688 -41.503906 42.546875 -41.421875 42.453125 -41.328125 C 40.148438 -38.878906 37.910156 -36.390625 35.734375 -33.859375 C 33.554688 -31.335938 31.421875 -28.773438 29.328125 -26.171875 C 30.328125 -24.921875 31.328125 -23.671875 32.328125 -22.421875 C 33.328125 -21.171875 34.300781 -19.894531 35.25 -18.59375 C 36 -17.550781 36.75 -16.488281 37.5 -15.40625 C 38.25 -14.332031 38.945312 -13.269531 39.59375 -12.21875 C 40.300781 -11.125 41.015625 -10.023438 41.734375 -8.921875 C 42.460938 -7.828125 43.101562 -6.703125 43.65625 -5.546875 C 44.050781 -4.648438 44.125 -3.738281 43.875 -2.8125 C 43.625 -1.882812 42.972656 -1.222656 41.921875 -0.828125 Z M 41.921875 -0.828125 "/></g></g></g><g fill="#ffffff" fill-opacity="1"><g transform="translate(155.350646, 209.999986)"><g><path d="M 42.828125 -44.171875 C 42.722656 -43.867188 42.625 -43.617188 42.53125 -43.421875 C 42.476562 -42.773438 42.347656 -42.125 42.140625 -41.46875 C 41.941406 -40.820312 41.546875 -40.300781 40.953125 -39.90625 C 40.703125 -39.695312 40.328125 -39.546875 39.828125 -39.453125 C 39.628906 -39.253906 39.453125 -39.15625 39.296875 -39.15625 C 37.398438 -38.800781 35.5 -38.445312 33.59375 -38.09375 C 31.695312 -37.75 29.800781 -37.453125 27.90625 -37.203125 C 27.90625 -35.546875 27.890625 -33.894531 27.859375 -32.25 C 27.835938 -30.601562 27.828125 -28.953125 27.828125 -27.296875 C 27.828125 -24.992188 27.835938 -22.707031 27.859375 -20.4375 C 27.890625 -18.164062 27.90625 -15.878906 27.90625 -13.578125 C 27.945312 -12.273438 27.992188 -10.960938 28.046875 -9.640625 C 28.097656 -8.316406 28.148438 -7.003906 28.203125 -5.703125 C 28.148438 -4.796875 28.007812 -3.929688 27.78125 -3.109375 C 27.5625 -2.285156 27.101562 -1.597656 26.40625 -1.046875 L 26.40625 -1.203125 C 26.445312 -1.753906 26.46875 -2.289062 26.46875 -2.8125 C 26.46875 -3.332031 26.492188 -3.84375 26.546875 -4.34375 L 26.546875 -7.203125 C 26.398438 -6.546875 26.273438 -5.742188 26.171875 -4.796875 C 26.078125 -3.847656 25.90625 -3 25.65625 -2.25 C 25.40625 -1.445312 24.878906 -0.84375 24.078125 -0.4375 C 23.273438 -0.0390625 22.472656 0.0507812 21.671875 -0.15625 C 20.117188 -0.65625 19.09375 -1.640625 18.59375 -3.109375 C 18.09375 -4.585938 17.796875 -6.050781 17.703125 -7.5 C 17.597656 -9.394531 17.554688 -11.316406 17.578125 -13.265625 C 17.609375 -15.222656 17.648438 -17.148438 17.703125 -19.046875 C 17.796875 -20.953125 17.90625 -22.878906 18.03125 -24.828125 C 18.15625 -26.773438 18.242188 -28.722656 18.296875 -30.671875 L 18.453125 -33.96875 L 18.453125 -36.375 C 17.953125 -36.375 17.460938 -36.375 16.984375 -36.375 C 16.515625 -36.375 16.03125 -36.375 15.53125 -36.375 C 13.476562 -36.375 11.476562 -36.445312 9.53125 -36.59375 C 8.726562 -36.695312 7.9375 -36.835938 7.15625 -37.015625 C 6.382812 -37.191406 5.648438 -37.476562 4.953125 -37.875 C 4.453125 -38.226562 3.988281 -38.65625 3.5625 -39.15625 C 3.132812 -39.65625 2.796875 -40.203125 2.546875 -40.796875 C 1.796875 -41.203125 1.234375 -41.816406 0.859375 -42.640625 C 0.484375 -43.460938 0.394531 -44.320312 0.59375 -45.21875 C 0.84375 -45.96875 1.304688 -46.644531 1.984375 -47.25 C 2.660156 -47.851562 3.398438 -48.101562 4.203125 -48 C 6.253906 -47.800781 8.300781 -47.640625 10.34375 -47.515625 C 12.394531 -47.390625 14.445312 -47.328125 16.5 -47.328125 C 16.5 -47.378906 16.507812 -47.414062 16.53125 -47.4375 C 16.5625 -47.457031 16.578125 -47.492188 16.578125 -47.546875 C 12.523438 -47.796875 8.472656 -48.25 4.421875 -48.90625 C 4.328125 -48.90625 4.289062 -48.976562 4.3125 -49.125 C 4.332031 -49.269531 4.394531 -49.320312 4.5 -49.28125 C 9.75 -48.976562 15 -48.875 20.25 -48.96875 C 25.5 -49.070312 30.722656 -49.347656 35.921875 -49.796875 C 36.328125 -49.898438 36.726562 -49.960938 37.125 -49.984375 C 37.519531 -50.015625 37.894531 -50.050781 38.25 -50.09375 C 38.445312 -50.09375 38.65625 -50.101562 38.875 -50.125 C 39.101562 -50.15625 39.320312 -50.144531 39.53125 -50.09375 C 40.070312 -50.195312 40.628906 -50.273438 41.203125 -50.328125 C 41.785156 -50.378906 42.351562 -50.425781 42.90625 -50.46875 C 43.25 -50.519531 43.457031 -50.332031 43.53125 -49.90625 C 43.613281 -49.488281 43.453125 -49.226562 43.046875 -49.125 C 42.796875 -49.125 42.625 -49.097656 42.53125 -49.046875 C 42.726562 -48.953125 42.875 -48.851562 42.96875 -48.75 C 43.820312 -48.25 44.234375 -47.460938 44.203125 -46.390625 C 44.179688 -45.316406 43.722656 -44.578125 42.828125 -44.171875 Z M 9.53125 -38.40625 C 10.820312 -38.300781 12.144531 -38.300781 13.5 -38.40625 C 12 -38.550781 10.5 -38.757812 9 -39.03125 C 7.5 -39.3125 6.023438 -39.675781 4.578125 -40.125 C 5.171875 -39.570312 5.914062 -39.15625 6.8125 -38.875 C 7.71875 -38.601562 8.625 -38.445312 9.53125 -38.40625 Z M 9.53125 -38.40625 "/></g></g></g><g fill="#ffffff" fill-opacity="1"><g transform="translate(192.025594, 209.999986)"><g><path d="M 43.203125 -43.046875 C 42.097656 -41.046875 40.867188 -39.109375 39.515625 -37.234375 C 38.171875 -35.359375 36.898438 -33.445312 35.703125 -31.5 C 35.597656 -31.351562 35.492188 -31.203125 35.390625 -31.046875 C 35.296875 -30.898438 35.195312 -30.75 35.09375 -30.59375 C 35.5 -29.800781 35.722656 -28.925781 35.765625 -27.96875 C 35.816406 -27.019531 35.445312 -26.222656 34.65625 -25.578125 C 34.601562 -25.523438 34.550781 -25.5 34.5 -25.5 C 34.445312 -25.5 34.394531 -25.472656 34.34375 -25.421875 C 34.25 -24.921875 34.078125 -24.546875 33.828125 -24.296875 C 33.078125 -23.597656 32.050781 -23.300781 30.75 -23.40625 L 28.875 -20.03125 C 26.675781 -16.175781 24.601562 -12.25 22.65625 -8.25 C 22.15625 -7.300781 21.664062 -6.328125 21.1875 -5.328125 C 20.707031 -4.328125 20.171875 -3.375 19.578125 -2.46875 C 19.222656 -1.875 18.796875 -1.347656 18.296875 -0.890625 C 17.796875 -0.441406 17.171875 -0.171875 16.421875 -0.078125 C 16.171875 -0.078125 16.046875 -0.175781 16.046875 -0.375 C 15.296875 -0.0195312 14.457031 0.0390625 13.53125 -0.1875 C 12.613281 -0.414062 11.890625 -0.90625 11.359375 -1.65625 C 10.835938 -2.40625 10.726562 -3.300781 11.03125 -4.34375 C 11.375 -5.394531 11.78125 -6.445312 12.25 -7.5 C 12.726562 -8.550781 13.195312 -9.578125 13.65625 -10.578125 C 14 -11.273438 14.320312 -11.972656 14.625 -12.671875 C 14.925781 -13.367188 15.25 -14.046875 15.59375 -14.703125 C 15.550781 -14.796875 15.488281 -14.894531 15.40625 -15 C 15.332031 -15.101562 15.269531 -15.203125 15.21875 -15.296875 C 14.875 -14.648438 14.535156 -14 14.203125 -13.34375 C 13.878906 -12.695312 13.570312 -12.023438 13.28125 -11.328125 C 12.226562 -9.171875 11.25 -6.992188 10.34375 -4.796875 C 10.34375 -5.347656 10.367188 -5.882812 10.421875 -6.40625 C 10.472656 -6.9375 10.523438 -7.453125 10.578125 -7.953125 C 11.273438 -9.546875 11.960938 -11.101562 12.640625 -12.625 C 13.316406 -14.15625 14.003906 -15.695312 14.703125 -17.25 C 14.648438 -17.894531 14.820312 -18.570312 15.21875 -19.28125 L 16.953125 -21.90625 C 17.046875 -22.101562 17.09375 -22.203125 17.09375 -22.203125 C 18.09375 -24.148438 19.171875 -26.148438 20.328125 -28.203125 C 19.722656 -28.503906 19.171875 -28.800781 18.671875 -29.09375 C 18.171875 -29.394531 17.820312 -29.597656 17.625 -29.703125 C 16.226562 -30.546875 14.84375 -31.40625 13.46875 -32.28125 C 12.09375 -33.15625 10.675781 -33.992188 9.21875 -34.796875 C 8.925781 -34.992188 8.703125 -35.117188 8.546875 -35.171875 C 8.203125 -35.328125 7.851562 -35.488281 7.5 -35.65625 C 7.144531 -35.832031 6.796875 -36.019531 6.453125 -36.21875 C 6.148438 -36.425781 5.835938 -36.601562 5.515625 -36.75 C 5.191406 -36.894531 4.851562 -37.046875 4.5 -37.203125 L 4.28125 -37.65625 C 4.175781 -37.65625 4.070312 -37.703125 3.96875 -37.796875 C 3.425781 -38.203125 2.816406 -38.640625 2.140625 -39.109375 C 1.460938 -39.585938 0.910156 -40.140625 0.484375 -40.765625 C 0.0546875 -41.390625 -0.101562 -42.101562 0 -42.90625 C 0.101562 -43.351562 0.203125 -43.648438 0.296875 -43.796875 C -0.0976562 -44.148438 -0.28125 -44.640625 -0.25 -45.265625 C -0.226562 -45.890625 -0.046875 -46.488281 0.296875 -47.0625 C 0.648438 -47.632812 1.050781 -47.972656 1.5 -48.078125 C 1.894531 -48.171875 2.171875 -48.21875 2.328125 -48.21875 L 2.84375 -48.21875 C 3.5 -48.21875 4.148438 -48.09375 4.796875 -47.84375 C 5.453125 -47.59375 6.078125 -47.320312 6.671875 -47.03125 C 7.972656 -46.53125 9.25 -46.003906 10.5 -45.453125 C 11.75 -44.898438 12.972656 -44.320312 14.171875 -43.71875 C 16.078125 -42.769531 17.96875 -41.78125 19.84375 -40.75 C 21.71875 -39.726562 23.53125 -38.644531 25.28125 -37.5 L 27.078125 -40.421875 C 27.628906 -41.273438 28.175781 -42.125 28.71875 -42.96875 C 29.269531 -43.820312 29.820312 -44.675781 30.375 -45.53125 C 30.875 -46.28125 31.398438 -47.066406 31.953125 -47.890625 C 32.503906 -48.710938 33.101562 -49.445312 33.75 -50.09375 C 33.851562 -50.195312 34.003906 -50.222656 34.203125 -50.171875 C 34.398438 -50.117188 34.523438 -50.019531 34.578125 -49.875 C 34.878906 -49.820312 35.128906 -49.671875 35.328125 -49.421875 C 35.523438 -49.171875 35.5 -48.921875 35.25 -48.671875 C 34 -46.972656 32.785156 -45.25 31.609375 -43.5 C 30.429688 -41.75 29.269531 -39.972656 28.125 -38.171875 C 27.925781 -37.921875 27.75 -37.644531 27.59375 -37.34375 C 27.445312 -37.050781 27.300781 -36.753906 27.15625 -36.453125 C 27.101562 -36.453125 27.078125 -36.4375 27.078125 -36.40625 C 27.078125 -36.382812 27.078125 -36.375 27.078125 -36.375 C 27.128906 -36.425781 27.238281 -36.375 27.40625 -36.21875 C 27.582031 -36.070312 27.671875 -36 27.671875 -36 C 27.671875 -36 27.84375 -36.257812 28.1875 -36.78125 C 28.539062 -37.3125 28.929688 -37.925781 29.359375 -38.625 C 29.785156 -39.320312 30.171875 -39.929688 30.515625 -40.453125 C 30.867188 -40.984375 31.070312 -41.273438 31.125 -41.328125 C 32.125 -42.773438 33.109375 -44.234375 34.078125 -45.703125 C 35.054688 -47.179688 36.222656 -48.472656 37.578125 -49.578125 C 37.878906 -49.878906 38.175781 -49.976562 38.46875 -49.875 C 39.175781 -50.175781 39.953125 -50.238281 40.796875 -50.0625 C 41.648438 -49.882812 42.328125 -49.519531 42.828125 -48.96875 C 43.523438 -48.320312 43.910156 -47.535156 43.984375 -46.609375 C 44.054688 -45.679688 43.84375 -44.820312 43.34375 -44.03125 C 43.445312 -43.625 43.398438 -43.296875 43.203125 -43.046875 Z M 43.203125 -43.046875 "/></g></g></g><g fill="#ffffff" fill-opacity="1"><g transform="translate(243.560148, 209.999986)"><g><path d="M 42.21875 -3.75 C 41.925781 -2.695312 41.328125 -1.929688 40.421875 -1.453125 C 39.523438 -0.984375 38.523438 -0.695312 37.421875 -0.59375 C 36.328125 -0.5 35.300781 -0.425781 34.34375 -0.375 C 32.800781 -0.320312 31.253906 -0.382812 29.703125 -0.5625 C 28.148438 -0.738281 26.597656 -0.851562 25.046875 -0.90625 C 22.898438 -1 20.765625 -0.984375 18.640625 -0.859375 C 16.515625 -0.734375 14.398438 -0.546875 12.296875 -0.296875 C 11.742188 0.046875 11.070312 0.21875 10.28125 0.21875 C 9.875 0.21875 9.597656 0.195312 9.453125 0.15625 C 8.953125 0.195312 8.460938 0.269531 7.984375 0.375 C 7.515625 0.476562 7.050781 0.578125 6.59375 0.671875 C 5.894531 0.773438 5.242188 0.675781 4.640625 0.375 C 4.046875 0.0703125 3.648438 -0.425781 3.453125 -1.125 C 3.398438 -1.226562 3.375 -1.351562 3.375 -1.5 C 3.070312 -1.945312 2.921875 -2.445312 2.921875 -3 C 2.921875 -3.851562 3.195312 -4.53125 3.75 -5.03125 C 4.300781 -5.53125 4.976562 -5.800781 5.78125 -5.84375 C 5.875 -5.84375 5.945312 -5.867188 6 -5.921875 C 5.945312 -8.171875 5.832031 -10.421875 5.65625 -12.671875 C 5.488281 -14.921875 5.300781 -17.171875 5.09375 -19.421875 C 4.300781 -19.671875 3.640625 -20.070312 3.109375 -20.625 C 2.585938 -21.175781 2.328125 -21.925781 2.328125 -22.875 C 2.328125 -23.625 2.523438 -24.273438 2.921875 -24.828125 C 3.328125 -25.378906 3.851562 -25.800781 4.5 -26.09375 C 4.5 -26.144531 4.484375 -26.179688 4.453125 -26.203125 C 4.429688 -26.234375 4.421875 -26.25 4.421875 -26.25 C 4.273438 -28.144531 4.125 -30.03125 3.96875 -31.90625 C 3.820312 -33.78125 3.648438 -35.644531 3.453125 -37.5 C 3.097656 -37.695312 2.757812 -37.921875 2.4375 -38.171875 C 2.113281 -38.421875 1.800781 -38.644531 1.5 -38.84375 C 1 -39.34375 0.5 -39.914062 0 -40.5625 C -0.5 -41.21875 -0.820312 -41.921875 -0.96875 -42.671875 C -1.125 -43.421875 -0.953125 -44.144531 -0.453125 -44.84375 C 0.296875 -45.84375 1.257812 -46.492188 2.4375 -46.796875 C 3.613281 -47.097656 4.773438 -47.273438 5.921875 -47.328125 C 8.273438 -47.328125 10.5 -46.953125 12.59375 -46.203125 C 14.84375 -45.453125 17.046875 -44.5 19.203125 -43.34375 C 19.847656 -43 20.894531 -42.375 22.34375 -41.46875 C 23.800781 -40.570312 25.414062 -39.472656 27.1875 -38.171875 C 28.957031 -36.867188 30.679688 -35.476562 32.359375 -34 C 34.035156 -32.53125 35.4375 -31.054688 36.5625 -29.578125 C 37.6875 -28.109375 38.335938 -26.710938 38.515625 -25.390625 C 38.691406 -24.066406 38.15625 -22.925781 36.90625 -21.96875 C 36.40625 -21.570312 35.878906 -21.234375 35.328125 -20.953125 C 34.773438 -20.679688 34.175781 -20.570312 33.53125 -20.625 C 32.675781 -20.726562 31.847656 -20.828125 31.046875 -20.921875 C 30.242188 -21.023438 29.34375 -21.125 28.34375 -21.21875 L 24.75 -21.453125 C 25 -21.347656 25.210938 -21.234375 25.390625 -21.109375 C 25.566406 -20.984375 25.753906 -20.875 25.953125 -20.78125 C 26.847656 -20.226562 27.71875 -19.660156 28.5625 -19.078125 C 29.414062 -18.503906 30.242188 -17.894531 31.046875 -17.25 C 34.492188 -14.550781 37.570312 -11.601562 40.28125 -8.40625 C 40.976562 -7.75 41.535156 -7.046875 41.953125 -6.296875 C 42.378906 -5.546875 42.46875 -4.695312 42.21875 -3.75 Z M 26.25 -28.953125 C 25.800781 -29.453125 25.335938 -29.925781 24.859375 -30.375 C 24.390625 -30.820312 23.90625 -31.269531 23.40625 -31.71875 C 22.90625 -32.125 22.46875 -32.5 22.09375 -32.84375 C 21.71875 -33.195312 21.328125 -33.5 20.921875 -33.75 C 19.867188 -34.445312 18.78125 -35.109375 17.65625 -35.734375 C 16.53125 -36.359375 15.46875 -36.847656 14.46875 -37.203125 C 14.125 -37.296875 13.785156 -37.40625 13.453125 -37.53125 C 13.128906 -37.65625 12.796875 -37.742188 12.453125 -37.796875 L 11.25 -38.03125 C 11.195312 -38.03125 11.15625 -38.03125 11.125 -38.03125 C 11.101562 -38.03125 11.070312 -38.03125 11.03125 -38.03125 C 11.375 -36.425781 11.65625 -34.8125 11.875 -33.1875 C 12.101562 -31.5625 12.320312 -29.925781 12.53125 -28.28125 C 14.976562 -28.625 17.425781 -28.847656 19.875 -28.953125 C 22.019531 -29.003906 24.144531 -29.003906 26.25 -28.953125 Z M 30.296875 -9.21875 C 29.148438 -10.21875 27.953125 -11.164062 26.703125 -12.0625 C 25.453125 -12.96875 24.148438 -13.796875 22.796875 -14.546875 C 21.492188 -15.242188 20.128906 -15.929688 18.703125 -16.609375 C 17.285156 -17.285156 15.851562 -17.820312 14.40625 -18.21875 C 14.195312 -18.320312 13.992188 -18.375 13.796875 -18.375 L 14.703125 -11.703125 C 14.796875 -10.953125 14.894531 -10.203125 15 -9.453125 C 15.101562 -8.703125 15.175781 -7.953125 15.21875 -7.203125 C 16.925781 -7.398438 18.628906 -7.550781 20.328125 -7.65625 C 21.828125 -7.695312 23.328125 -7.679688 24.828125 -7.609375 C 26.328125 -7.535156 27.828125 -7.375 29.328125 -7.125 C 30.628906 -6.976562 31.925781 -6.753906 33.21875 -6.453125 C 32.769531 -6.953125 32.304688 -7.4375 31.828125 -7.90625 C 31.359375 -8.382812 30.847656 -8.820312 30.296875 -9.21875 Z M 30.296875 -9.21875 "/></g></g></g><g fill="#ffffff" fill-opacity="1"><g transform="translate(277.235113, 209.999986)"><g><path d="M 1.046875 -43.28125 C 0.898438 -43.78125 0.953125 -44.28125 1.203125 -44.78125 C 1.453125 -45.28125 1.703125 -45.703125 1.953125 -46.046875 C 2.453125 -46.796875 3.078125 -47.421875 3.828125 -47.921875 C 4.023438 -48.117188 4.175781 -48.242188 4.28125 -48.296875 C 5.28125 -48.992188 6.34375 -49.519531 7.46875 -49.875 C 8.59375 -50.226562 9.726562 -50.253906 10.875 -49.953125 C 11.875 -49.703125 12.75 -49.285156 13.5 -48.703125 C 14.25 -48.128906 14.800781 -47.34375 15.15625 -46.34375 C 15.300781 -45.945312 15.273438 -45.570312 15.078125 -45.21875 C 14.878906 -44.875 14.628906 -44.578125 14.328125 -44.328125 C 13.078125 -43.421875 11.75 -42.820312 10.34375 -42.53125 C 9.894531 -42.03125 9.296875 -41.664062 8.546875 -41.4375 C 7.796875 -41.207031 7.070312 -41.09375 6.375 -41.09375 C 5.769531 -41.09375 5.179688 -41.144531 4.609375 -41.25 C 4.035156 -41.351562 3.472656 -41.503906 2.921875 -41.703125 C 2.578125 -41.796875 2.203125 -41.992188 1.796875 -42.296875 C 1.398438 -42.597656 1.148438 -42.925781 1.046875 -43.28125 Z M 6.078125 -41.46875 C 7.171875 -41.46875 7.894531 -41.582031 8.25 -41.8125 C 8.601562 -42.039062 8.753906 -42.15625 8.703125 -42.15625 C 8.253906 -42.050781 7.753906 -41.972656 7.203125 -41.921875 C 6.648438 -41.867188 5.945312 -41.921875 5.09375 -42.078125 C 4 -42.328125 3.265625 -42.828125 2.890625 -43.578125 C 2.515625 -44.328125 2.5 -45.125 2.84375 -45.96875 C 2.5 -45.570312 2.175781 -45.097656 1.875 -44.546875 C 1.726562 -44.203125 1.65625 -43.890625 1.65625 -43.609375 C 1.65625 -43.335938 1.800781 -43.078125 2.09375 -42.828125 C 2.59375 -42.421875 3.070312 -42.144531 3.53125 -42 C 4.28125 -41.75 5.128906 -41.570312 6.078125 -41.46875 Z M 13.875 -3.96875 C 13.519531 -3.375 12.992188 -2.953125 12.296875 -2.703125 C 12.347656 -2.453125 12.320312 -2.1875 12.21875 -1.90625 C 12.125 -1.632812 11.898438 -1.425781 11.546875 -1.28125 C 10.648438 -0.820312 9.6875 -0.691406 8.65625 -0.890625 C 7.632812 -1.097656 6.773438 -1.550781 6.078125 -2.25 L 5.921875 -2.46875 C 5.578125 -2.625 5.203125 -2.851562 4.796875 -3.15625 C 3.992188 -3.90625 3.503906 -4.800781 3.328125 -5.84375 C 3.160156 -6.894531 3 -7.945312 2.84375 -9 C 2.5 -11.800781 2.238281 -14.585938 2.0625 -17.359375 C 1.882812 -20.140625 1.820312 -22.925781 1.875 -25.71875 C 1.875 -27.070312 1.875 -28.4375 1.875 -29.8125 C 1.875 -31.1875 1.945312 -32.550781 2.09375 -33.90625 C 2.195312 -34.601562 2.375 -35.285156 2.625 -35.953125 C 2.875 -36.628906 3.222656 -37.195312 3.671875 -37.65625 C 3.773438 -37.800781 3.875 -37.9375 3.96875 -38.0625 C 4.070312 -38.1875 4.175781 -38.300781 4.28125 -38.40625 C 4.820312 -38.75 5.53125 -39.179688 6.40625 -39.703125 C 7.28125 -40.234375 8.144531 -40.535156 9 -40.609375 C 9.851562 -40.679688 10.476562 -40.21875 10.875 -39.21875 C 11.125 -39.269531 11.375 -39.21875 11.625 -39.0625 C 11.875 -38.914062 12.023438 -38.671875 12.078125 -38.328125 C 12.078125 -36.921875 12.050781 -35.539062 12 -34.1875 C 11.945312 -32.84375 11.921875 -31.472656 11.921875 -30.078125 C 11.921875 -28.722656 11.945312 -27.359375 12 -25.984375 C 12.050781 -24.609375 12.101562 -23.222656 12.15625 -21.828125 C 12.15625 -21.578125 12.164062 -21.285156 12.1875 -20.953125 C 12.207031 -20.628906 12.242188 -20.296875 12.296875 -19.953125 C 12.347656 -20.003906 12.410156 -19.800781 12.484375 -19.34375 C 12.554688 -18.894531 12.617188 -18.457031 12.671875 -18.03125 C 12.722656 -17.613281 12.773438 -17.40625 12.828125 -17.40625 C 12.773438 -19.195312 12.734375 -21.191406 12.703125 -23.390625 C 12.679688 -25.597656 12.679688 -27.800781 12.703125 -30 C 12.734375 -32.195312 12.800781 -34.171875 12.90625 -35.921875 C 12.90625 -36.023438 12.988281 -36.085938 13.15625 -36.109375 C 13.332031 -36.140625 13.421875 -36.128906 13.421875 -36.078125 C 13.273438 -30.722656 13.347656 -25.382812 13.640625 -20.0625 C 13.941406 -14.738281 14.445312 -9.398438 15.15625 -4.046875 C 15.195312 -3.703125 15.019531 -3.515625 14.625 -3.484375 C 14.226562 -3.460938 13.976562 -3.625 13.875 -3.96875 Z M 5.546875 -34.578125 C 4.992188 -32.878906 4.679688 -31.09375 4.609375 -29.21875 C 4.535156 -27.34375 4.445312 -25.53125 4.34375 -23.78125 L 4.34375 -23.03125 C 4.34375 -22.976562 4.34375 -22.953125 4.34375 -22.953125 C 4.34375 -22.953125 4.34375 -22.925781 4.34375 -22.875 C 4.445312 -21.976562 4.546875 -21.078125 4.640625 -20.171875 C 4.742188 -19.273438 4.847656 -18.375 4.953125 -17.46875 L 5.171875 -17.46875 C 5.171875 -19.175781 5.15625 -20.863281 5.125 -22.53125 C 5.101562 -24.207031 5.117188 -25.894531 5.171875 -27.59375 C 5.171875 -28.894531 5.234375 -30.207031 5.359375 -31.53125 C 5.484375 -32.863281 5.75 -34.128906 6.15625 -35.328125 L 6.078125 -35.328125 C 5.722656 -35.078125 5.546875 -34.828125 5.546875 -34.578125 Z M 5.546875 -34.578125 "/></g></g></g><g fill="#ffffff" fill-opacity="1"><g transform="translate(286.160102, 209.999986)"><g><path d="M 42.828125 -44.171875 C 42.722656 -43.867188 42.625 -43.617188 42.53125 -43.421875 C 42.476562 -42.773438 42.347656 -42.125 42.140625 -41.46875 C 41.941406 -40.820312 41.546875 -40.300781 40.953125 -39.90625 C 40.703125 -39.695312 40.328125 -39.546875 39.828125 -39.453125 C 39.628906 -39.253906 39.453125 -39.15625 39.296875 -39.15625 C 37.398438 -38.800781 35.5 -38.445312 33.59375 -38.09375 C 31.695312 -37.75 29.800781 -37.453125 27.90625 -37.203125 C 27.90625 -35.546875 27.890625 -33.894531 27.859375 -32.25 C 27.835938 -30.601562 27.828125 -28.953125 27.828125 -27.296875 C 27.828125 -24.992188 27.835938 -22.707031 27.859375 -20.4375 C 27.890625 -18.164062 27.90625 -15.878906 27.90625 -13.578125 C 27.945312 -12.273438 27.992188 -10.960938 28.046875 -9.640625 C 28.097656 -8.316406 28.148438 -7.003906 28.203125 -5.703125 C 28.148438 -4.796875 28.007812 -3.929688 27.78125 -3.109375 C 27.5625 -2.285156 27.101562 -1.597656 26.40625 -1.046875 L 26.40625 -1.203125 C 26.445312 -1.753906 26.46875 -2.289062 26.46875 -2.8125 C 26.46875 -3.332031 26.492188 -3.84375 26.546875 -4.34375 L 26.546875 -7.203125 C 26.398438 -6.546875 26.273438 -5.742188 26.171875 -4.796875 C 26.078125 -3.847656 25.90625 -3 25.65625 -2.25 C 25.40625 -1.445312 24.878906 -0.84375 24.078125 -0.4375 C 23.273438 -0.0390625 22.472656 0.0507812 21.671875 -0.15625 C 20.117188 -0.65625 19.09375 -1.640625 18.59375 -3.109375 C 18.09375 -4.585938 17.796875 -6.050781 17.703125 -7.5 C 17.597656 -9.394531 17.554688 -11.316406 17.578125 -13.265625 C 17.609375 -15.222656 17.648438 -17.148438 17.703125 -19.046875 C 17.796875 -20.953125 17.90625 -22.878906 18.03125 -24.828125 C 18.15625 -26.773438 18.242188 -28.722656 18.296875 -30.671875 L 18.453125 -33.96875 L 18.453125 -36.375 C 17.953125 -36.375 17.460938 -36.375 16.984375 -36.375 C 16.515625 -36.375 16.03125 -36.375 15.53125 -36.375 C 13.476562 -36.375 11.476562 -36.445312 9.53125 -36.59375 C 8.726562 -36.695312 7.9375 -36.835938 7.15625 -37.015625 C 6.382812 -37.191406 5.648438 -37.476562 4.953125 -37.875 C 4.453125 -38.226562 3.988281 -38.65625 3.5625 -39.15625 C 3.132812 -39.65625 2.796875 -40.203125 2.546875 -40.796875 C 1.796875 -41.203125 1.234375 -41.816406 0.859375 -42.640625 C 0.484375 -43.460938 0.394531 -44.320312 0.59375 -45.21875 C 0.84375 -45.96875 1.304688 -46.644531 1.984375 -47.25 C 2.660156 -47.851562 3.398438 -48.101562 4.203125 -48 C 6.253906 -47.800781 8.300781 -47.640625 10.34375 -47.515625 C 12.394531 -47.390625 14.445312 -47.328125 16.5 -47.328125 C 16.5 -47.378906 16.507812 -47.414062 16.53125 -47.4375 C 16.5625 -47.457031 16.578125 -47.492188 16.578125 -47.546875 C 12.523438 -47.796875 8.472656 -48.25 4.421875 -48.90625 C 4.328125 -48.90625 4.289062 -48.976562 4.3125 -49.125 C 4.332031 -49.269531 4.394531 -49.320312 4.5 -49.28125 C 9.75 -48.976562 15 -48.875 20.25 -48.96875 C 25.5 -49.070312 30.722656 -49.347656 35.921875 -49.796875 C 36.328125 -49.898438 36.726562 -49.960938 37.125 -49.984375 C 37.519531 -50.015625 37.894531 -50.050781 38.25 -50.09375 C 38.445312 -50.09375 38.65625 -50.101562 38.875 -50.125 C 39.101562 -50.15625 39.320312 -50.144531 39.53125 -50.09375 C 40.070312 -50.195312 40.628906 -50.273438 41.203125 -50.328125 C 41.785156 -50.378906 42.351562 -50.425781 42.90625 -50.46875 C 43.25 -50.519531 43.457031 -50.332031 43.53125 -49.90625 C 43.613281 -49.488281 43.453125 -49.226562 43.046875 -49.125 C 42.796875 -49.125 42.625 -49.097656 42.53125 -49.046875 C 42.726562 -48.953125 42.875 -48.851562 42.96875 -48.75 C 43.820312 -48.25 44.234375 -47.460938 44.203125 -46.390625 C 44.179688 -45.316406 43.722656 -44.578125 42.828125 -44.171875 Z M 9.53125 -38.40625 C 10.820312 -38.300781 12.144531 -38.300781 13.5 -38.40625 C 12 -38.550781 10.5 -38.757812 9 -39.03125 C 7.5 -39.3125 6.023438 -39.675781 4.578125 -40.125 C 5.171875 -39.570312 5.914062 -39.15625 6.8125 -38.875 C 7.71875 -38.601562 8.625 -38.445312 9.53125 -38.40625 Z M 9.53125 -38.40625 "/></g></g></g></svg>